<?xml version="1.0" encoding="utf-8"?>
<!-- Generator: Adobe Illustrator 25.0.1, SVG Export Plug-In . SVG Version: 6.00 Build 0)  -->
<svg version="1.1" id="Layer_1" xmlns="http://www.w3.org/2000/svg" xmlns:xlink="http://www.w3.org/1999/xlink" x="0px" y="0px"
	 viewBox="0 0 1920 300" style="enable-background:new 0 0 1920 300;" xml:space="preserve">
<style type="text/css">
	.st0{clip-path:url(#SVGID_2_);}
	.st1{fill:#FBDCEA;}
	.st2{fill:#676890;}
	.st3{fill:#3E4068;}
	.st4{fill:#1E2039;}
	.st5{fill:#253658;}
	.st6{fill:#CE873B;}
	.st7{fill:#F1AB82;}
	.st8{fill:#EF9A44;}
	.st9{fill:#D55527;}
	.st10{fill:#FFCC55;}
	.st11{fill:#3960AC;}
	.st12{fill:#34589E;}
	.st13{fill:#050606;}
	.st14{fill:#BD9940;}
	.st15{fill:#7BAE76;}
	.st16{fill:#1E2F4E;}
	.st17{fill:#AE733E;}
	.st18{fill:#23221D;}
	.st19{fill:#FFFFFF;}
	.st20{fill:#93959B;}
	.st21{fill:#262843;}
	.st22{fill:#326BB4;}
	.st23{fill:#2D62A5;}
	.st24{fill:#EDCA33;}
	.st25{fill:#973F40;}
	.st26{fill:#EF464B;}
	.st27{fill:#1A0B14;}
	.st28{fill:none;stroke:#5B8459;stroke-miterlimit:10;}
	.st29{fill:#32327F;}
	.st30{fill:#A88838;}
	.st31{fill:#FECC8F;}
	.st32{fill:#3C3E3D;}
	.st33{fill:#08A6A1;}
	.st34{fill:#EDBD87;}
	.st35{fill:#494444;}
	.st36{fill:#0E9893;}
	.st37{fill:#BA2027;}
	.st38{fill:#534E4D;}
	.st39{fill:#EFC843;}
	.st40{fill:#3C3B46;}
	.st41{fill:#B26529;}
	.st42{fill:#3C3837;}
	.st43{fill:#5B3A24;}
	.st44{fill:#4F321B;}
</style>
<g>
	<defs>
		<rect id="SVGID_1_" width="1920" height="300"/>
	</defs>
	<clipPath id="SVGID_2_">
		<use xlink:href="#SVGID_1_"  style="overflow:visible;"/>
	</clipPath>
	<g class="st0">
		<path class="st1" d="M-61.1,139.3c0,0,115.9-11.3,141.7-26.3S157.9,58.4,212,50.3c54.1-8.2,106.9-22.6,106.9-22.6
			s267.9,89.7,298.8,88.4c19.9-0.8,126.2,1.8,187.5-30.2c41.7-21.8,89.7-35.1,128.1-30.6c0,0,139.1,64.6,182.9,65.8l273.5-39.7
			l54.7-25.1l152.2,49.7c0,0,181.6-41.4,199.6-38.9s140.4,52.7,140.4,52.7l294.9,102.8c0,0-29.6,138-37.3,141.7
			c-7.7,3.8-2396.8,80.9-2396.8,80.9l28.3-326.7L-61.1,139.3z"/>
		<path class="st2" d="M-70.1,146.9c0,0,261.4,3.1,361.9-10.7s333.6-16.9,333.6-16.9l104.3,27.6h32.2l42.5,8.8
			c0,0,243.4-1.3,260.2-5.6c16.7-4.4,91.4-27.6,91.4-27.6s32.2,5.6,52.8,5c20.6-0.6,97.9,16.9,97.9,16.9h95.3l33.5,6.9l74.7-15.7
			c0,0,164.9,18.2,193.2,13.8c28.3-4.4,55.4-10.7,68.3-8.2s191.9,27.6,191.9,27.6l45.1,208.8l-2053,54.6l-95.3-89L-70.1,146.9z"/>
		<path class="st3" d="M-31.5,200c0,0,153.3,0.6,164.9,3.1c11.6,2.5,103-5.6,113.3-15l56.7-15h73.4c0,0,78.6,8.2,100.5,6.9
			s76,13.2,86.3,12.5c10.3-0.6,323.3,1.9,333.6-2.5s73.2-10.6,73.2-10.6l95.1-15.4c0,0,82.9,17.8,107.3,19.7
			c24.5,1.9,265.3,2.5,287.2,7.5c21.9,5,101.7,10,121.1-1.9c19.3-11.9,38.6-20.7,38.6-20.7l55.4,8.2c0,0,59.2,0,112,5
			s195.8,3.8,195.8,3.8l9,118.5L-74,325.4L-104.9,190L-31.5,200z"/>
		<path class="st4" d="M-58.6,276.2c0,0,106.3-22.4,271.2-18.2c165,4.2,369.1,2.8,468.3-4.2c99.3-7,432-9.8,532.7-11.2
			c100.7-1.4,124.4-18.2,265.6-11.2s464.2,8.4,464.2,8.4v198.5H-53L-58.6,276.2z"/>
		<path class="st5" d="M1258.3,254.8c0.1,0.3,0.3,0.5,0.5,0.6c1.8,1,9,4.9,11.7,4.7c1.6-0.1,2.1,0.6,2.2,1.4
			c0.1,0.7-0.4,1.3-1.1,1.3l-19.2,0.2c-0.7,0-1.2-0.5-1.2-1.2c0.2-2.7,0.5-9.2,1.5-9.8c0.9-0.6,2.8-0.3,3.9-0.2
			c0.5,0,0.9,0.3,1.1,0.8L1258.3,254.8z"/>
		<path class="st5" d="M1299.3,250.1c0.1,0,1,1.2,1.1,1.2c1.2,0.5,7.9,1.7,11.9,0.2c3.2-1.2,3.3,0.6,3.1,1.6
			c-0.1,0.4-0.4,0.7-0.7,0.8l-17.4,6.1c-0.6,0.2-1.3-0.1-1.5-0.7c-0.6-1.9-2.1-5.3-1.4-6.9C1295,250.5,1298.3,250.1,1299.3,250.1"/>
		<path class="st6" d="M1258.7,187.1c0.1,1.2,0.6,6.9,2.4,8.7c0.4,0.4,0.5,0.9,0.4,1.3c-0.9,3.2-4,14.1-3.8,18.3
			c0.3,4.9-3.1,31-2.8,35.9c0.2,3.6,0.9,2.9,3.6,2.9c0.8,0,0.7-9.1,1.7-9.9c1.3-1,3.9-8.3,4.2-12.2c0.3-3.9,2.2-5.3,4-7.5
			s1.5-10.3,2.2-12.1c0.6-1.6,1-3.8,1.9-3.6c3,0.5,7.6,10.2,11.5,16.5c3.5,5.6,8.9,29.7,10.2,29.2c1-0.4,6.1-3.4,6.1-3.4
			s-5.3-23.7-4.9-27.7c0.7-6.5-13.2-36.9-16.1-43c-0.3-0.6-2.6-0.2-3.2-0.1l-15.8,3.7c-0.5,0.1-0.9,0.5-1,1l-0.5,1.7
			C1258.7,186.8,1258.7,186.9,1258.7,187.1"/>
		<path class="st7" d="M1270.4,121.5c0,0,5.8,3.1,9,2.8c3.2-0.3,5.8-0.2,6.2-1c0.4-0.7-0.3-6.4-0.3-6.4s2.1,0.6,2.3-0.1
			c0.3-0.7-3.8-3.2-4.4-6.4c-0.6-3.2-1.1-5.1-4.3-5.6c-3.2-0.6-11.2,3.8-11.2,3.8l0.5,10.9L1270.4,121.5z"/>
		<path class="st7" d="M1281.5,122.7c0,0-4.7,5.2-4.5,11.1c0.3,6-7.7-6.2-7.7-6.2l5.2-8.8L1281.5,122.7z"/>
		<path class="st8" d="M1278.5,180.7c-0.2-0.5-5.3,0.2-5.3,0.2l-12.9,3c-0.5,0.1-0.9,0.5-1,1c0,0-1.6,0.4-1.6,0.6
			c0.1,1.2,0.3,9,2.1,10.8c0.4,0.4-2.3,14.9-2,19c0.3,4.9-6.5,38.6-5.8,39.1c1.6,1.2,6.7,0.7,6.7,0.7s1.8-8.5,2.6-10.1
			c0.7-1.4,6.5-17.6,8.1-20.2c1.5-2.4,3.8-11,4.6-12.8c0.8-1.8,2.9-15.9,3.9-17.6C1278.5,193.2,1280.9,184.2,1278.5,180.7"/>
		<path class="st9" d="M1270.1,132.3c0,0,4.7-6.6,5.1-9.3s0.6-4,0.6-4s-2.9-2.9-1.2-4.3c1.7-1.4,2.4,1.1,2.4,1.1s2.9-0.7,3-1.7
			s3-7.1,3.3-8.7c0.2-1.6-6.1-6.4-8.5-5.5c-2.4,1-5.1,3.9-7.8,4.9c-2.7,1-5.8,7.5-4.6,10.8c1.2,3.3,6.4,13.4,4.9,19.3
			C1265.7,140.8,1270.1,132.3,1270.1,132.3"/>
		<path class="st9" d="M1266,109.3c0.3,3.5-2.6,6.6-6.4,7c-3.9,0.3-7.2-2.2-7.5-5.7s2.6-6.6,6.4-7
			C1262.3,103.3,1265.7,105.8,1266,109.3"/>
		<path class="st10" d="M1278.4,131c0,0,8.8,15.9,7.8,19.2c-1,3.2-5.5,6.7-5.2,9c0.4,2.3-2.6,21.4,0.1,22.7c0,0,0.2,3.6-25,5.7
			c0,0,4-24.8,2.8-37.4c-1.3-12.6,12.4-21.1,14.2-21.2C1275.1,128.9,1277.6,129.8,1278.4,131"/>
		<path class="st9" d="M1259.7,114.2c0.1,0.2,0.2,5.9-1.8,7.4c0,0,1.9-0.3,2.9-7.5c0,0-0.1,8.8-1.7,9.7c0,0,2.3,0.4,2.8-11.4
			l-2.6,0.1L1259.7,114.2z"/>
		<path class="st11" d="M1273.2,129c-0.7,0-3,1.2-5.6,3.3c1.8-0.6,8.3-2.5,9.6-1.2c1.5,1.5,1.9,25.7,0.2,27.7
			c-1.7,2-7.1,20.3-20.4,23c-0.1,0.5-0.1,0.9-0.2,1.3c4.2-0.8,17.8-5,22.1-24.9c2.4-11.2,2.6-18.2,2-22.6c-1.4-2.8-2.5-4.8-2.5-4.8
			C1277.6,129.8,1275.1,128.9,1273.2,129"/>
		<path class="st11" d="M1268.8,131.3c0,0-6.9-3.5-12.1-4.6s-12.2-2.4-13.7,4.1c-1.5,6.5-8.1,21.5-7.5,25.7
			c0.5,4.2-4.1,10.1-3.4,15.6s6.2,12,8.8,12.2c2.6,0.2,17.6,1.3,17.5-0.3C1257.1,154.4,1268.8,131.3,1268.8,131.3"/>
		<path class="st12" d="M1261.5,137.9c0.3-2.7-0.7-5.5-2.9-7.2c-1.6-1.2-3.7-2.5-6.2-2.8c-5.5-0.7-7.6,3-8.4,7.3
			c-0.7,4.3-7.2,17.3-6.7,20.2s-1.8,10.1-2.6,13.4c-0.8,3.2,1.9,12.3,5,12.2c3.2-0.1,10.1,0.6,11.8-0.2
			C1253.2,180.1,1260,149.8,1261.5,137.9"/>
		<polygon class="st13" points="1306,155.6 1263.7,246.9 1264.8,247.3 1307.7,155.7 		"/>
		<path class="st14" d="M1310.9,143.1l-6.3,13.2l2.4,2.3l6.9-12.7C1313.9,145.8,1315.6,142.4,1310.9,143.1"/>
		<path class="st7" d="M1274.7,130c0,0-6-0.2-5.8,8.1s1.5,23.9,2.8,24.5c6.8,3.2,24.1,1.7,26,2.2s7.3,0.6,8.3,0.1s2.3-3.3,1.9-4.3
			c-0.5-1,0-2.6-1.1-2.6c-1.2,0.1-1.7-2.3-3.3-1.6c-1.6,0.6-4.8,4-6.4,3.6c-2.7-0.6-16.1-0.6-17.5-2.6s0.7-17.8,0.3-19.7
			C1279.6,135.9,1280.4,130.3,1274.7,130"/>
		<path class="st12" d="M1266.8,135.9c-1.2,0.2-2.3,1.1-2.6,2.3c-2.5,9.4-10.6,40-9.1,43.3c0.5,1.1,1.7,1.4,3.2,1.3
			C1257.6,161.7,1263.6,144,1266.8,135.9"/>
		<path class="st5" d="M1140.9,191.7c0,0-23,0.8-28.4-10.8c-5.4-11.5-10.6-43.2-7.5-50.9c3.1-7.6,10.1-11.9,12.1-12
			s25.1-5.9,29.9,1.3C1151.7,126.5,1140.9,191.7,1140.9,191.7"/>
		<path class="st15" d="M1150.7,109.7c0,0-20.4-2.9-25.8-2.6s-7.3,5.1-7,9.9s3.3,8.3,8,8c4.7-0.2,23.6-7.2,23.6-7.2L1150.7,109.7z"
			/>
		<path class="st16" d="M1135.1,127.4c0,0,2.7,56.8,2.6,59.6c-0.1,2.7,13.4-1.7,13.4-1.7l-2.9-64
			C1148.2,121.2,1135.8,123.9,1135.1,127.4"/>
		<path class="st16" d="M1131.1,127.8c0,0-19.8-10.2-22.4,0.7c-2.6,11,2.9,49.6,7.5,52.8s15,8.1,16.3,6.2
			C1133.8,185.7,1135,131.3,1131.1,127.8"/>
		<path class="st17" d="M1163.1,92.8c0,0,0.7,5.7-0.2,7c-0.8,1.4,2.3,2.8,2.6,3.4c0.2,0.6,1.5,1.7-1.6,1.6s-2.8,4.5-2.8,4.5
			s-3.9,8.3-3.4,11.1c0.5,2.8-10.5-2.1-10.5-2.1s1.3-9.6,0.7-11.5c-0.5-1.9-2.6-9.5-2.6-9.5s3.6-3,3.8-3.3
			c0.2-0.3,10.5-3.7,10.5-3.7L1163.1,92.8z"/>
		<path class="st18" d="M1159.9,105.5c0.3-1.1,4-1.6,4.9,0.6s2.4,6.7,2.3,7.8c0,1.5-3.1,3.6-10.2,0.7s-5.1-14.1-5.1-14.1
			s-2.2-2.5-4.2-1.7c-2,0.7-0.3,6.1,1.5,6.5c1.7,0.4-1.2,4.7-1.2,4.7s-3.6-10-3.1-13.6c0.6-3.6,3.8-6.1,8.1-6.7
			c4.4-0.6,3.6,0.2,4.6-1s6.4,4.6,5.4,4.7s-8.5-0.5-8.8,3.4s-2.5,8,0.1,9.8C1154.3,106.7,1158.6,110,1159.9,105.5"/>
		<path class="st19" d="M1163.2,108.2c0,0-1.9,0.4-2.9-0.6c0,0,0.6,1.7,2.4,1.7C1164.1,109.3,1163.2,108.2,1163.2,108.2"/>
		<path class="st17" d="M1162.5,153.6c0,0,17.5,24.4,20.1,26.2c2,1.3,1.1,1.2-0.3,3.7c-0.3,0.5-1.3,0.8-1.6,0.2c-1-2-2-2.4-3.5-3.9
			c-2.3-2.3-18.2-14.4-18.2-14.4L1162.5,153.6z"/>
		<polygon class="st13" points="1180.7,169.7 1181.6,257.9 1182.4,257.8 1181.9,169.3 		"/>
		<path class="st14" d="M1179.7,158.7l0.3,12.4l2.5-0.3l0.1-11.9C1182.7,159,1181.7,157,1179.7,158.7"/>
		<path class="st20" d="M1123.1,255.7c-0.1,0.1-0.2,0.1-0.4,0.2c-0.9,0.9-5.7,5.6-5.1,6.9c0.6,1.4,9.4,5.7,10.7,7.2
			c0.8,1,6.4,1,10.3,0.8c1.4,0,1.9-1.9,0.7-2.7c-1.9-1.3-4.3-2.6-6.3-3.1c-4-0.9-5.8-6.9-5.6-7.2c0.1-0.1,0.3-1.1,0.4-2.1
			c0.2-1.2-1-2.1-2.1-1.5L1123.1,255.7z"/>
		<path class="st20" d="M1181.4,261.1c0,0,0,9,1.4,8.7c1.4-0.2,6.7-2.3,7.6-2.3c0.7,0,7.2-1.4,10.3-2.1c0.9-0.2,1.2-1.3,0.6-1.9
			c-0.8-0.9-2.8-1.3-4.8-0.9c-3.9,0.7-9.1-0.6-10-2"/>
		<path class="st21" d="M1161.4,181c0,0,15.3,39.2,15.8,40.9c1.1,4.1,9.8,39.1,9.8,39.1l-5.6,0.5c0,0-16.6-21-16.3-36.3l-10-14.5
			l-5.5,17.2l-21.6,31.2l-5.5-2.9c0,0,3.5-19,14.4-34.9c0,0-1-28.3,5-42.7C1147.9,164.1,1161.4,181,1161.4,181"/>
		<path class="st4" d="M1136.9,221.3c-11,15.9-14.4,34.9-14.4,34.9l5.5,2.9l21.6-31.2l5.5-17.2c0,0-18-18.9-14.6-30.6
			C1133.5,194.4,1136.9,221.3,1136.9,221.3"/>
		<path class="st22" d="M1144.6,113.4v3.4c0,0-7.2,13.1-7.9,18.5c-0.6,5.4-1.7,9.2-1.7,9.2l5,3.2c0,0,1,33-0.7,34.9
			c0,0,21.4,1.4,22.9-1.3c0,0,3.4-35.3,1.3-44.5c-1.3-5.9-5.2-13.4-4.5-16.3c0,0,1.9-1.8,2.1-3.5c0.2-1.4-9.7-4.9-14.6-5.5
			C1145.3,111.4,1144.3,112.4,1144.6,113.4"/>
		<path class="st17" d="M1130.9,177.9c-1-2,7.6-21.1,8.7-24.2l-6.4-5.7c-1.6,5.6-5.5,24.8-6.3,28c-0.7,1.1-1.9,4.1-1.9,5.9
			c-0.1,2.5,4.8,3.5,5.4,2.9c0.9-0.9,0.4-2.3,0.4-2.4c0-0.3,0.9-0.3,1-0.6C1132.2,180.4,1131,178.3,1130.9,177.9"/>
		<path class="st23" d="M1153.6,123.8c-0.8-2.5-3.4-4.3-8.1-3.2c-6,1.4-12.4,25.3-13.8,31.7c3.6,0.3,6.9,1.4,9.4,2.7
			c0.7-1.4,1.3-2.3,1.6-2.5c1.7-1.3,8.7-20.1,10.4-24.8C1153.4,126.9,1153.8,124.5,1153.6,123.8"/>
		<path class="st24" d="M1169,94.6c-1.9-0.4-5.3-1.2-5.3-1.2s-3.5-8.6-11.8-7.1s-9.5,10.2-6.8,14.4c0,0,9-5.1,27.1-4.1
			C1172.8,96.6,1170.5,94.9,1169,94.6"/>
		<path class="st25" d="M1171.4,95.7c-0.7-0.5-1.6-1-2.4-1.1c-0.5-0.1-1-0.2-1.6-0.3c-0.9-0.2-1.8-0.4-2.5-0.6s-1.2-0.3-1.2-0.3l0,0
			c-2.9,1.2-12.1,4.9-19.1,6.5c0.1,0.3,0.3,0.6,0.5,0.9c0,0,9-5.1,27.1-4.1C1172.5,96.6,1172.1,96.1,1171.4,95.7"/>
		<path class="st26" d="M1171.4,95.7c-0.7-0.5-1.6-1-2.4-1.1c-0.5-0.1-1-0.2-1.6-0.3c-0.9-0.2-1.8-0.4-2.5-0.6s-1.2-0.3-1.2-0.3l0,0
			c-2.9,1.2-12.1,4.9-19.1,6.5c0.1,0.3,0.3,0.6,0.5,0.9c0,0,9-5.1,27.1-4.1C1172.5,96.6,1172.1,96.1,1171.4,95.7"/>
		<path class="st27" d="M1144.5,99.5c0.7-0.3,1.5-0.7,1.5-1c0.1-0.4-1.1-1.2-2.2-1.8C1143.9,97.7,1144.2,98.6,1144.5,99.5"/>
		<path class="st17" d="M1182.2,177c0,0-3.8-1.6-3.5,2.6c0.3,4.3,1.1,4.8,2.8,4.5C1184.5,183.5,1184.5,178.5,1182.2,177"/>
		<path class="st28" d="M1131.7,116.5c0-2.2-2.2-7.3-6.8-7.3s-5.5,4.4-5.4,7.2c0.1,4.5,2.9,6.5,5.4,6.5s4.8-1.9,5.1-4.6
			c0.4-4.4-3.1-5.8-5-5.8c-2.5,0-2.8,2.1-2.8,3.6c-0.1,2.3,1.3,3.3,2.7,3.3c0,0,3.3-0.2,1.7-4.1"/>
		<path class="st29" d="M555.4,256.9c0,0-2.3,7.4-1.7,8.2c0.6,0.7,23.7,2.4,23.6,1.2c-0.1-1.2,0.5-1.8-1.1-2.1
			c-1.5-0.3-12.4-3.3-11.9-6.7c0.5-3.4-7.5-2.9-7.5-2.9L555.4,256.9z"/>
		<path class="st30" d="M559.7,190.2c0,0,12.5,23.9,13.9,28.9c1.4,5.1-9.3,38.7-9.3,38.7h-9.2c0,0,3.4-29.5,5.9-32.3
			c0,0-25.3-30.1-20.5-45C545.2,165.8,559.7,190.2,559.7,190.2"/>
		<path class="st29" d="M518.8,244.1c0,0-6.2,4.7-6.2,5.6c0,0.5,8.8,11.5,11,14.3c0.3,0.4,0.8,0.6,1.2,0.6c1.8,0.1,6,0.3,6.2-0.1
			c1.2-2-1.1-3.2-2.2-4.4c-1.1-1.2-4.8-7.4-2.4-9.9c2.4-2.5-5.2-7.2-5.2-7.2L518.8,244.1z"/>
		<path class="st14" d="M559.3,187l-6.8,37.3L526.1,251l-8.1-6.2c0,0,13.2-21.6,19.9-22.8c0,0-3.7-41,6.5-50.3
			C554.5,162.4,559.3,187,559.3,187"/>
		<path class="st31" d="M602.8,134.6c0,0-1,6.4-2.7,7.3c-1.6,0.9-0.3,4.8-1.1,5.1s-2.6-1.9-2.9-1.4c-0.3,0.5-5.3,3.3-7,2.9
			c-1.7-0.3-9.2,4.3-9.8,4.6c-0.6,0.2-4.6-11.7-4.6-11.7s1.7-1,4.4-0.2c3.9,1.1,12.6-10.6,12.6-10.6L602.8,134.6z"/>
		<path class="st32" d="M579.2,141.3c0.1,0,0.2,0,0.3,0.1h0.2c1.6,0,3.9-1.7,6-3.7l1.2-2.6l-1.2-0.9l-7,7
			C578.9,141.2,579.1,141.2,579.2,141.3"/>
		<path class="st32" d="M596.5,145.8c0,0-0.1-2-2.7-2.3c-2.6-0.3-7.3-2.5-3-6.7c4.4-4.2-1.5-2.1-1.8-1.9c-0.3,0.2-3.5,1.7-3.7,2
			c-0.2,0.4-1.4,0.3-1.3,3.4c0,3.2,3.2,10.3,3.2,10.7s1.7,1.3,2.8,0.5S596.2,147.5,596.5,145.8"/>
		<polygon class="st13" points="606.5,183 597,265.7 598.1,265.7 607.9,182.6 		"/>
		<path class="st14" d="M607.1,171.8l-1.5,12l2.5,1.1l2.1-11.8C610.3,173.2,610.6,170,607.1,171.8"/>
		<path class="st33" d="M583.7,152.6l-7.3-13.7c-0.5-0.9-1.6-1.1-2.4-0.6l-2.3,1.6c0,0-13.9,7.7-20.3,14.3
			c-9.3,9.7-14.1,26.4-14.1,26.4s13.7,7.9,23.6,11.4c0,0,5.4-17.1,13-25.6c2.4-2.7,2.8-10.3,4.3-10.9
			C581.2,154.3,583.7,152.6,583.7,152.6"/>
		<path class="st34" d="M576.1,174.5l-9.3-25.8c-1-2.6,0.1-5.3,2.4-6.8l3.5-0.9c1.2-0.8,3.9,1.8,4.2,3.2c1.6,7.4,5.8,23.5,7.9,24.8
			c2.8,1.7,16,15.1,19.2,14.9c0.4,0,1.4,0,1.7-0.3c1.2-1,1.5,0.7,2.8,1.7c1.7,1.3-1.3,3.1-2,3.6c-0.8,0.5-1.8-0.2-5.4-1.4
			c-3.2-1.1-12-5.7-21.7-9.6C577.9,177.3,576.6,176,576.1,174.5"/>
		<path class="st35" d="M549.7,164c0,0,16.2,5.9,21.4-1.5s11.9-20-0.7-21.1c-12.6-1.2-0.9-5.2-0.9-5.2s8.8,5,9.4,8.5
			c0.6,3.6-0.7,15.5-5.5,19.4s-10.8,7.7-24.4,2.2c-13.5-5.4-4-9.5-4-9.5L549.7,164z"/>
		<path class="st36" d="M575.6,173.3c0,0,2.2-9,6.8-9.2c-1.8-4.3-2.8-12.7-4.3-18.7c-1-4-5.6-5.9-9.1-3.7c-2.4,1.5-3.4,4.5-2.4,7.2
			L575.6,173.3z"/>
		<path class="st37" d="M554.5,113.6c0,0-13.6-9.5-22.4-2.2c-8.8,7.3-17.2,18.3-8.5,20s28.5-7.1,30.9-11.4
			C557,115.8,554.5,113.6,554.5,113.6"/>
		<path class="st5" d="M546.3,160.8c0,0-16.5,35.9-21,34.5c-4.5-1.3-1.8-14.2,6.8-32.4c8.6-18.1,23.7-63.9,26.5-63.9
			s8.4,0.5,8.1,3.2C566.3,105,546.3,160.8,546.3,160.8"/>
		<path class="st38" d="M569.2,139.3c0,0,12.7-13.6,6.5-22.6s-16.2-13.5-25.4-4.4c-7.3,7.2-30.6,30.1-40.1,39.4
			c-2.8,2.7-3.9,6.7-2.9,10.5c1,3.6,2.7,7.7,5.8,9.9c3.7,2.5,7.9,4.3,11.6,4.8c3.3,0.5,6.7-0.6,9.1-3L569.2,139.3z"/>
		<path class="st39" d="M564.2,127.9c-0.5-0.5-1.1-1-1.7-1.4c-2.3-1.7-5.5-1.4-7.6,0.6L527.1,154c-2.2,2.2-2.4,5.7-0.5,8.1
			c0.5,0.6,1,1.2,1.5,1.7c0.3,0.4,0.7,0.7,1.1,1.1c2.3,2.2,6,2.3,8.3,0.1l28-26.5c2.2-2.1,2.5-5.5,0.7-7.9l-1.5-2
			C564.5,128.3,564.4,128.1,564.2,127.9"/>
		<polygon class="st40" points="544.6,158.3 546.3,156.6 535.7,145.7 533.6,147.7 		"/>
		<polygon class="st40" points="548.1,133.6 558.9,144.7 561.1,142.6 550.3,131.6 		"/>
		<path class="st41" d="M524.1,153.4c-1.1-1.5-6.1,0.4-11.1,4.2s-8.2,8-7.1,9.5s6.1-0.4,11.1-4.2C522,159.2,525.2,154.9,524.1,153.4
			"/>
		<path class="st42" d="M532.3,170.3l-17.8-18.8c-1.6-1.7-4.3-1.8-6-0.3l-2.1,1.9c-1.8,1.6-1.9,4.4-0.3,6.2l17.4,18.7
			c1.5,1.6,3.9,1.8,5.7,0.6l2.5-1.8C533.8,175.3,534.1,172.2,532.3,170.3"/>
		<path class="st43" d="M603.1,129.9c0,9.2-3.5,5.9-12.8,7.3c-9.1,1.4-10.8,5.5-11-3.8c-0.1-4.8,0.1-8.4,9-10
			C595.5,122.1,603.1,126.1,603.1,129.9"/>
		<path class="st44" d="M602.1,137.4c0,0-16.9,3.3-22.4,2.7c0,0-0.9-1.8-0.1-2.2c0.8-0.4,22.1-2.5,22.9-3.5
			C603.2,133.5,602.7,137.4,602.1,137.4"/>
	</g>
</g>
</svg>
