<?xml version="1.0" encoding="utf-8"?>
<!-- Generator: Adobe Illustrator 14.0.0, SVG Export Plug-In . SVG Version: 6.00 Build 43363)  -->
<!DOCTYPE svg PUBLIC "-//W3C//DTD SVG 1.1//EN" "http://www.w3.org/Graphics/SVG/1.1/DTD/svg11.dtd">
<svg version="1.1" id="Capa_1" xmlns="http://www.w3.org/2000/svg" xmlns:xlink="http://www.w3.org/1999/xlink" x="0px" y="0px"
	 width="512px" height="512px" viewBox="0 0 512 512" enable-background="new 0 0 512 512" xml:space="preserve">
<path fill="#0077BC" d="M465.26,465.899c-18.277-0.482-34.411-5.12-47.952-13.787c-28.513-18.248-45.435-53.949-46.262-96.683
	c7.378,0.475,16.831-3.764,21.316-11.863c2.906-5.225,3.55-11.104,2.261-16.507c5.259-1.771,9.908-5.437,12.827-10.688
	c3.128-5.625,3.634-12.008,1.929-17.737c4.791-1.896,8.992-5.396,11.7-10.266c2.611-4.695,3.486-10.033,2.538-15.252
	c0.083-0.023,0.166-0.038,0.249-0.063c5.908-1.685,10.809-5.57,13.84-11.021c2.985-5.369,3.702-11.58,2.017-17.489
	c-0.987-3.463-2.749-6.564-5.104-9.152l20.19-25.634c2.563-3.254,2.003-7.971-1.251-10.533c-3.254-2.563-7.972-2.003-10.533,1.251
	l-20.919,26.561l-13.021-7.242l47.487-60.294c26.351-31.656,16.328-85.126-20.992-104.607L410.255,40.81
	c-35.404-20.967-86.657-2.598-99.942,37.351l-26.169,72.151l-13.021-7.242L298.352,68c15.033-45.099,73.088-67.373,114.74-42.881
	l34.322,19.088c42.136,22.001,54.906,82.899,24.103,120.097l-6.769,8.594c-2.563,3.254-2.003,7.971,1.251,10.533
	c1.376,1.084,3.012,1.608,4.637,1.608c2.221,0,4.418-0.98,5.896-2.859l6.769-8.594c36.285-43.747,21.95-115.85-28.596-142.49
	l-34.321-19.088C371.446-16.858,302.512,8.744,284.25,62.883l-27.287,75.233c-8.172-0.195-18.061,4.688-21.913,13.937l-33.334-79.47
	c-16.828-43.072-73.538-62.557-113.697-38.132l-39.34,22.688C9.247,78.65-4.378,135.107,22.293,172.28l3.478,5.072
	c-6.093,7.323-6.867,18.103-1.193,26.291l39.256,56.644c5.155,7.047,14.507,11.461,24.515,8.32l13.404,19.547
	c9.837,14.345,23.929,24.934,40.241,30.424c-17.197,21.973-23.911,50.241-18.42,77.61c5.418,27.452,23.623,52.268,48.828,65.55
	c1.155,0.643,2.406,0.947,3.64,0.947c2.634,0,5.189-1.391,6.562-3.854c2.014-3.62,0.712-8.188-2.908-10.201
	c-20.95-10.907-36.786-31.887-41.413-55.393c-4.646-23.149,1.068-47.065,15.678-65.613l49.41-62.735l13.021,7.242l-47.489,60.295
	c-12.725,16.156-17.702,36.987-13.655,57.151s16.676,37.46,34.649,47.456l25.326,14.085c10.553,5.868,22.269,8.844,34.046,8.844
	c8.281,0,16.595-1.473,24.547-4.443c19.265-7.2,34.335-22.417,41.347-41.75l26.17-72.151l13.021,7.24l-27.228,75.07
	c-8.051,22.196-25.354,39.667-47.469,47.934c-22.221,8.502-48.628,6.096-69.41-6.241c-3.622-2.011-8.187-0.711-10.201,2.909
	c-2.013,3.621-0.71,8.188,2.909,10.201c24.37,14.412,54.802,17.281,81.954,7.183c25.986-9.712,46.365-30.14,56.033-56.112
	c11.707,25.988,29.264,46.9,51.514,61.141c20.594,13.327,45.828,20.372,71.584,21.042c11.382,0.51,23.444-9.311,23.65-22.433
	C488.188,478.226,478.383,466.074,465.26,465.899L465.26,465.899z M394.295,309.165c-2.145,3.854-7.027,5.247-10.882,3.104
	l-79.684-44.316c-3.622-2.014-8.188-0.711-10.201,2.908c-2.013,3.621-0.711,8.188,2.909,10.201l79.686,44.317
	c0.006,0.004,0.012,0.007,0.02,0.01c0.002,0.001,0.004,0.002,0.005,0.003c3.854,2.145,5.247,7.025,3.058,10.963
	c-2.144,3.854-7.025,5.248-10.881,3.104l-161.393-89.757c-1.868-1.038-3.219-2.743-3.805-4.798
	c-0.586-2.055-0.337-4.215,0.747-6.166c2.145-3.854,7.025-5.25,10.881-3.103c0.005,0.003,0.011,0.005,0.016,0.008
	c0.003,0.002,0.006,0.004,0.009,0.006l51.053,28.393c1.154,0.643,2.404,0.946,3.639,0.946c2.635,0,5.191-1.392,6.563-3.854
	c2.014-3.621,0.711-8.188-2.909-10.202l-51.052-28.393c-1.867-1.038-3.218-2.742-3.805-4.797c-0.586-2.055-0.337-4.215,0.749-6.166
	c2.144-3.854,7.027-5.246,10.881-3.104c5.148,2.865,156.232,86.89,161.342,89.729c1.867,1.039,3.218,2.742,3.804,4.798
	S395.379,307.215,394.295,309.165L394.295,309.165z M301.7,319.573l-27.666,76.065c-2.769,7.608-8.706,13.598-16.292,16.43
	c-7.589,2.83-15.997,2.198-23.074-1.737l-20.38-11.334c-7.077-3.937-12.051-10.746-13.648-18.686
	c-1.597-7.938,0.358-16.144,5.362-22.508l50.026-63.632L301.7,319.573z M404.875,270.204c1.862,1.038,3.21,2.74,3.795,4.792
	c0.587,2.055,0.338,4.215-0.747,6.165c-2.145,3.854-7.027,5.247-10.881,3.104l-158.369-88.076
	c-3.855-2.144-5.248-7.025-3.059-10.963c1.04-1.868,2.743-3.22,4.798-3.807c2.055-0.584,4.215-0.337,6.083,0.702
	c0.003,0.002,0.007,0.003,0.01,0.005L404.875,270.204z M324.414,83.275c10.206-30.606,49.842-46.182,78.547-29.356l25.325,14.084
	c28.595,14.94,37.674,56.545,16.499,82.214l-48.982,62.191l-13.078-7.273l48.541-61.743c15.92-19.132,9.898-51.558-12.788-63.574
	l-20.38-11.335c-21.407-12.694-52.475-1.625-60.754,22.675l-26.845,73.809l-13.078-7.272L324.414,83.275z M323.776,172.353
	l27.665-76.065c5.059-15.123,24.633-23.01,39.365-14.691l20.38,11.335c14.134,7.384,18.83,27.96,8.286,41.192l-50.025,63.63
	L323.776,172.353z M249.218,157.208c2.143-3.855,7.026-5.249,10.882-3.104l161.393,89.757c1.867,1.038,3.218,2.742,3.804,4.797
	c0.588,2.055,0.338,4.215-0.747,6.167c-1.038,1.867-2.742,3.218-4.797,3.805c-2.06,0.587-4.218,0.337-6.083-0.701l-161.394-89.757
	c-1.868-1.038-3.219-2.742-3.805-4.798C247.884,161.319,248.133,159.159,249.218,157.208L249.218,157.208z M24.943,112.378
	c4.072-17.748,15.454-33.146,31.23-42.244l39.337-22.687c31.743-19.439,78.48-4.72,92.369,30.939l39.3,93.692
	c-1.851,1.683-3.457,3.665-4.721,5.938c-2.688,4.833-3.441,10.228-2.519,15.287c-0.425,0.117-0.848,0.242-1.266,0.384
	l-20.219-48.203c-1.602-3.819-5.998-5.616-9.818-4.015s-5.619,5.998-4.015,9.818l21.838,52.063c-0.207,0.332-0.408,0.672-0.6,1.018
	c-2.813,5.06-3.584,10.864-2.257,16.46c-5.281,1.763-9.952,5.435-12.882,10.703c-2.986,5.369-3.703,11.581-2.018,17.489
	c0.665,2.33,1.683,4.495,2.988,6.457l-15.822,20.089c-13.568,3.293-28.156-2.139-36.041-13.637l-13.351-19.469
	c6.741-7.317,7.786-18.616,1.898-27.112L89.12,158.704c-5.305-7.473-15.339-11.554-25.526-7.942l-3.226-4.706
	c-10.772-14.813-6.168-39.541,11.245-48.919l39.337-22.688c16.274-10.013,40.78-2.574,48.212,16.139l11.836,28.219
	c1.602,3.82,6,5.616,9.818,4.016c3.82-1.602,5.619-5.998,4.016-9.818l-11.836-28.219c-10.191-26.038-44.712-38.337-69.54-23.331
	L64.116,84.14c-23.847,12.971-32.599,47.379-16.123,70.398l2.917,4.254l-13.292,9.31l-2.952-4.305
	C24.419,148.855,20.875,130.114,24.943,112.378z M38.581,185.745l28.806-20.176c1.623-1.373,6.671-2.092,9.401,1.681l14.968,21.597
	l-39.713,28.088l-15.133-21.837C34.804,192.06,35.554,187.864,38.581,185.745L38.581,185.745z M80.516,254.536
	c-1.777-0.317-3.322-1.31-4.351-2.794l-15.577-22.477l39.713-28.087l15.742,22.715c2.105,3.039,1.354,7.235-1.671,9.355
	l-28.806,20.175C84.665,253.959,83.888,254.48,80.516,254.536L80.516,254.536z M114.126,279.671l-12.941-18.873l13.292-9.31
	l12.978,18.925c8.314,12.124,21.771,19.565,36.034,20.869l-11.49,14.589C136.554,302.068,123.138,292.813,114.126,279.671z
	 M301.063,408.65c-5.512,15.195-17.355,27.155-32.496,32.813c-15.141,5.658-31.926,4.397-46.051-3.457l-25.326-14.085
	c-14.125-7.855-24.051-21.45-27.231-37.298c-3.18-15.847,0.731-32.219,10.732-44.916l48.983-62.191l13.077,7.272l-48.541,61.744
	c-7.724,9.824-10.74,22.485-8.276,34.737s10.142,22.763,21.064,28.838l20.38,11.334c6.416,3.567,13.54,5.376,20.701,5.376
	c5.03,0,10.078-0.893,14.908-2.695c11.709-4.369,20.874-13.611,25.146-25.356l26.845-73.809l13.078,7.272L301.063,408.65z
	 M470.189,494.78c-1.559,1.479-3.584,2.279-5.751,2.205c-21.389-0.356-45.388-6.611-63.895-18.682
	c-23.895-15.294-41.761-39.451-51.818-69.93l9.736-26.843c6.226,36.28,24.077,66.14,50.759,83.216
	c15.875,10.159,34.597,15.593,55.646,16.147c3.307,0.164,7.687,2.811,7.83,8.258C472.64,491.302,471.749,493.3,470.189,494.78z"/>
</svg>
