<?xml version="1.0" encoding="utf-8"?>
<!-- Generator: Adobe Illustrator 14.0.0, SVG Export Plug-In . SVG Version: 6.00 Build 43363)  -->
<!DOCTYPE svg PUBLIC "-//W3C//DTD SVG 1.1//EN" "http://www.w3.org/Graphics/SVG/1.1/DTD/svg11.dtd">
<svg version="1.1" id="Capa_1" xmlns="http://www.w3.org/2000/svg" xmlns:xlink="http://www.w3.org/1999/xlink" x="0px" y="0px"
	 width="512px" height="512px" viewBox="0 0 512 512" enable-background="new 0 0 512 512" xml:space="preserve">
<g>
	<g>
		<path fill="#0077BC" d="M168.327,235.977c3.905-3.905,3.905-10.237,0-14.143c-3.905-3.904-10.237-3.904-14.143,0
			c-1.221,1.222-3.21,1.224-4.432,0c-3.905-3.906-10.237-3.905-14.142,0.001c-3.905,3.905-3.905,10.236,0,14.142
			c4.51,4.51,10.434,6.765,16.358,6.765C157.893,242.742,163.817,240.487,168.327,235.977L168.327,235.977z"/>
		<path fill="#0077BC" d="M461.154,222.979c-22.706-41.198-66.563-69.173-116.836-69.173c-25.019,0-49.543,6.302-71.424,18.249
			c-0.063-0.062-0.119-0.128-0.183-0.19c-13.183-13.016-30.638-20.065-49.184-19.814c-8.426,0.108-16.67,1.746-24.357,4.761
			c-7.769-1.99-15.784-3.005-23.872-3.005c-52.885,0-95.911,43.025-95.911,95.911v43.528c0,7.346-4.76,13.321-10.611,13.321
			s-10.611-5.977-10.611-13.321c0-26.76,3.421-51.854,9.633-70.661c1.97-5.966,0.948-12.57-2.735-17.666
			c-3.692-5.107-9.659-8.156-15.962-8.156h-13.99c-8.183,0-15.393,4.948-18.37,12.605C5.818,237.464,0.045,270.866,0.045,305.962
			c0,26.708,12.949,51.988,34.637,67.627c1.769,1.275,3.814,1.89,5.84,1.89c3.104,0,6.165-1.44,8.12-4.151
			c3.23-4.479,2.217-10.729-2.263-13.96c-16.49-11.891-26.334-31.106-26.334-51.404c0-32.58,5.284-63.42,15.282-89.2h13.335
			c-6.77,20.721-10.495,47.856-10.495,76.483c0,18.373,13.732,33.321,30.611,33.321c16.879,0,30.611-14.948,30.611-33.321v-43.528
			c0-41.857,34.053-75.911,75.911-75.911c0.103,0,0.205,0.005,0.307,0.005c-1.156,3.333-0.512,7.175,2.016,9.979
			c3.697,4.103,10.02,4.431,14.123,0.734c8.757-7.893,20.135-12.323,32.038-12.477c13.145-0.163,25.531,4.821,34.876,14.048
			c9.347,9.229,14.494,21.545,14.494,34.679c0,8.969-2.454,17.73-7.1,25.34c-5.921,9.7-8.844,22.036-8.468,33.616
			c0,9.123-3.619,17.627-10.206,23.943c-6.583,6.313-15.24,9.569-24.39,9.198c-5.982-0.25-11.65-2.086-16.613-5.348
			c-0.205-5.294-1.764-10.534-4.674-15.214c-5.642-9.069-15.377-14.598-26.042-14.783c-14.269-0.277-26.916,9.322-30.745,23.274
			c-4.776,17.405-18.569,31.157-35.998,35.892c-4.002,1.087-6.918,4.53-7.33,8.657c-0.412,4.127,1.767,8.08,5.476,9.937
			c3.571,1.787,7.248,3.252,10.993,4.408c-2.406,3.393-2.529,8.067,0.039,11.63c1.955,2.711,5.015,4.151,8.12,4.151
			c2.026,0,4.072-0.613,5.84-1.89c4.481-3.231,8.631-6.912,12.39-10.961c5.208-0.411,10.403-1.41,15.505-2.984
			c8.27,7.574,15.958,15.733,23.017,24.386c-16.255,30.16-25.995,62.794-28.97,97.104c-0.242,2.792,0.698,5.559,2.592,7.623
			c1.894,2.065,4.568,3.241,7.37,3.241h54.073c4.752,0,8.848-3.345,9.798-8c0.427-2.09,0.894-4.175,1.38-6.257
			c0.487,2.079,0.955,4.163,1.382,6.257c0.95,4.656,5.046,8,9.798,8h54.073c2.803,0,5.477-1.176,7.37-3.241s2.834-4.831,2.593-7.623
			c-1.397-16.11-4.299-31.824-8.636-47.082c5.677,0.31,11.373,0.478,17.046,0.478c7.131,0,14.293-0.253,21.418-0.741
			c-4.379,15.34-7.304,31.143-8.709,47.346c-0.242,2.792,0.698,5.559,2.592,7.623c1.895,2.065,4.568,3.241,7.37,3.241h54.073
			c4.752,0,8.848-3.344,9.798-8c2.405-11.783,5.783-23.383,10.025-34.675c4.223,11.272,7.563,22.871,9.974,34.675
			c0.95,4.656,5.046,8,9.798,8h54.073c2.802,0,5.476-1.176,7.37-3.241c1.894-2.065,2.834-4.831,2.592-7.623
			c-2.997-34.563-17.215-76.842-37.347-111.431c14.134-24.86,21.761-53.477,21.761-82.586c0-14.344-2.286-28.16-6.498-41.117
			c12.301,5.648,20.87,18.074,20.87,32.475v92.47c0,5.521,4.477,10,10,10s10-4.479,10-10v-92.47
			C512.001,249.392,489.603,225.457,461.154,222.979L461.154,222.979z M283.127,256.534c6.563-10.748,10.029-23.113,10.029-35.76
			c0-11.549-2.824-22.649-8.145-32.526c18.295-9.467,38.608-14.443,59.307-14.443c22.957,0,44.336,6.869,62.205,18.65v33.986
			c0,41.527-33.785,75.312-75.313,75.312c-20.179,0-39.517-8.133-53.631-22.435C277.33,271.646,279.242,262.898,283.127,256.534z
			 M154.661,340.354c-4.811,1.547-9.742,2.366-14.664,2.473c11.561-9.272,20.186-22.07,24.208-36.73
			c1.392-5.072,5.959-8.572,11.013-8.572c3.907,0.068,7.432,2.02,9.504,5.352c2.02,3.247,2.253,7.071,0.64,10.492
			c-0.316,0.672-0.648,1.339-0.997,2.002C178.082,327.344,167.533,336.217,154.661,340.354L154.661,340.354z M210.009,471.997
			h-34.888c3.269-24.46,10.355-47.917,21.128-70.023c8.816,13.198,16.273,27.274,22.226,41.961
			C215.116,453.095,212.278,462.493,210.009,471.997z M471.989,471.997h-34.782c-3.918-16.423-9.516-32.422-16.661-47.732
			c6.45-12.477,14.012-24.389,22.62-35.491c0.083-0.107,0.163-0.218,0.246-0.325C457.594,415.089,467.969,445.373,471.989,471.997
			L471.989,471.997z M427.359,376.519c-21.809,28.128-37.549,60.984-45.801,95.479h-34.891c4.208-31.525,14.71-61.313,31.289-88.687
			c2.861-4.725,1.352-10.872-3.374-13.733c-4.724-2.859-10.873-1.352-13.733,3.373c-7.828,12.924-14.391,26.348-19.705,40.201
			c-9.373,0.908-18.867,1.376-28.306,1.376c-7.95,0-15.948-0.343-23.86-0.987c-5.34-13.991-11.95-27.546-19.851-40.59
			c-2.86-4.725-9.011-6.235-13.734-3.373c-4.724,2.86-6.234,9.01-3.374,13.733c16.578,27.373,27.082,57.16,31.289,88.687h-34.891
			c-10.996-45.959-35.201-88.464-69.167-121.629c8.708-5.95,16.006-13.806,21.391-23.129c6.68,3.354,15.179,5.326,22.663,5.639
			c13.79,0,27.922-5.181,37.919-14.771c4.957-4.756,8.854-10.289,11.608-16.33c16.584,12.84,37.106,19.977,58.376,19.977
			c52.557,0,95.313-42.757,95.313-95.312v-17.23c19.268,20.322,31.105,47.755,31.105,77.904
			C457.629,319.593,446.879,351.344,427.359,376.519L427.359,376.519z"/>
		<path fill="#0077BC" d="M116.122,120.475c-6.281-10.254-17.612-15.992-29.552-14.971c-7.677,0.655-15.104,3.323-21.476,7.714
			c-20.986,14.457-28.023,42.431-16.368,65.068c1.574,3.059,5.038,5.111,8.465,5.405c3.12,0,6.511-1.443,8.409-3.96
			c1.999-2.649,4.395-4.945,7.123-6.824c4.354-3.001,9.498-4.426,14.902-4.146c11.413,0.637,22.293-5.104,28.396-14.911
			C122.407,143.587,122.446,130.799,116.122,120.475L116.122,120.475z M99.04,143.282c-2.251,3.617-6.227,5.714-10.35,5.507
			c-9.136-0.489-17.94,1.758-25.577,6.509c-0.058-9.928,4.685-19.657,13.327-25.61c3.518-2.424,7.609-3.896,11.83-4.256
			c0.348-0.029,0.692-0.044,1.034-0.044c4.013,0,7.609,2.019,9.763,5.534C101.448,134.809,101.438,139.429,99.04,143.282
			L99.04,143.282z"/>
		<path fill="#0077BC" d="M13.436,77.668c4.435,3.084,7.623,7.379,9.219,12.422c1,3.158,1.482,6.44,1.433,9.758
			c-0.051,3.439,1.669,6.664,4.555,8.537c1.647,1.068,3.542,1.611,5.444,1.611c1.432,0,2.868-0.307,4.208-0.929
			C61.392,98.353,73.01,71.952,65.319,47.655c-2.336-7.379-6.562-14.044-12.218-19.272c-8.805-8.141-21.265-10.562-32.518-6.325
			C9.253,26.324,1.433,36.443,0.174,48.465C-1.028,59.954,4.053,71.144,13.436,77.668z M27.632,40.774
			c4.188-1.577,8.634-0.72,11.894,2.295c3.111,2.875,5.437,6.549,6.727,10.622c3.167,10.004,0.937,20.596-5.203,28.397
			c-3.111-8.438-8.678-15.613-16.196-20.841c-3.397-2.362-5.231-6.463-4.788-10.701C20.538,46.034,23.367,42.381,27.632,40.774
			L27.632,40.774z"/>
		<circle fill="#0077BC" cx="83.371" cy="379.284" r="10"/>
		<circle fill="#0077BC" cx="306.786" cy="264.594" r="10"/>
		<circle fill="#0077BC" cx="342.773" cy="270.258" r="10"/>
		<circle fill="#0077BC" cx="371.379" cy="247.394" r="10"/>
		<circle fill="#0077BC" cx="376.523" cy="210.711" r="10"/>
	</g>
</g>
</svg>
