<?xml version="1.0" encoding="utf-8"?>
<!-- Generator: Adobe Illustrator 14.0.0, SVG Export Plug-In . SVG Version: 6.00 Build 43363)  -->
<!DOCTYPE svg PUBLIC "-//W3C//DTD SVG 1.1//EN" "http://www.w3.org/Graphics/SVG/1.1/DTD/svg11.dtd">
<svg version="1.1" id="Layer_1" xmlns="http://www.w3.org/2000/svg" xmlns:xlink="http://www.w3.org/1999/xlink" x="0px" y="0px"
	 width="512px" height="512px" viewBox="0 0 512 512" enable-background="new 0 0 512 512" xml:space="preserve">
<path fill="#0077BC" d="M241,61h-30v66.238C141.82,146.875,91,210.613,91,286v61c0,18.871,3.898,36.852,10.922,53.176
	C79.367,422.059,65.27,450.867,61.828,482H31v30h90v-30H92.066c2.918-20.398,11.75-39.379,25.441-54.75
	C142.129,460.441,181.594,482,226,482h60c44.406,0,83.871-21.559,108.492-54.75c13.695,15.375,22.523,34.352,25.441,54.75H391v30h90
	v-30h-30.828c-3.441-31.133-17.539-59.941-40.094-81.824C417.102,383.852,421,365.871,421,347v-61
	c0-75.387-50.82-139.125-120-158.762V61h-30V30h241V0C499.004,0,15.574,0,0,0v30h241V61z M241,151.84V332H121v-46
	C121,216.633,173.594,159.324,241,151.84z M286,452h-60c-52.805,0-96.621-39.191-103.926-90.012h267.852
	C382.621,412.809,338.805,452,286,452z M391,286v46H271V151.84C338.406,159.324,391,216.633,391,286z M256,121
	c-5.059,0-10.059,0.242-15,0.688V91h30v30.688C266.059,121.242,261.059,121,256,121z"/>
<path fill="#0077BC" d="M301,392h30v30h-30V392z"/>
<path fill="#0077BC" d="M181,392h30v30h-30V392z"/>
</svg>
