<?xml version="1.0" encoding="utf-8"?>
<!-- Generator: Adobe Illustrator 14.0.0, SVG Export Plug-In . SVG Version: 6.00 Build 43363)  -->
<!DOCTYPE svg PUBLIC "-//W3C//DTD SVG 1.1//EN" "http://www.w3.org/Graphics/SVG/1.1/DTD/svg11.dtd">
<svg version="1.1" id="Layer_1" xmlns="http://www.w3.org/2000/svg" xmlns:xlink="http://www.w3.org/1999/xlink" x="0px" y="0px"
	 width="490px" height="490px" viewBox="0 0 490 490" enable-background="new 0 0 490 490" xml:space="preserve">
<path fill="#0077BC" d="M483.848,256.761l-37.997,15.999c-0.746,0.32-1.441,0.75-2.063,1.273l-51.293,43.5l-0.901-2.191
	c-4.965-11.894-18.265-17.936-30.486-13.847l-5.602,1.887l-4.145-4.191L331.805,266.6l22.518-102.8l11.625-5.824
	c7.147-3.601,11.455-11.12,10.955-19.108c-0.5-7.991-5.718-14.909-13.26-17.592l4.8-21.908c0.797-4.253-1.925-8.371-6.151-9.292
	c-4.23-0.925-8.426,1.68-9.473,5.875l-5.878,26.822l-61.651,30.869l-23.197-19.893l0.359-2.047c1.34-8.147-0.188-16.506-4.32-23.654
	c13.723-0.949,26.209-8.276,33.721-19.803c7.511-11.522,9.179-25.904,4.507-38.841l28.174-14.065
	c3.972-1.969,5.597-6.785,3.624-10.757c-1.969-3.972-6.788-5.593-10.756-3.625l-29.104,14.55
	c-15.401-18.1-42.406-20.678-60.952-5.816c-18.549,14.862-21.92,41.777-7.609,60.756c-2.367,0.477-4.675,1.191-6.898,2.137
	l1.129-5.968c0.648-3.437-0.129-6.992-2.156-9.843c-2.027-2.855-5.129-4.758-8.589-5.277l-37.114-5.496
	c-10.956-1.687-21.24,5.726-23.096,16.655l-9.335,52.988l-10.222-2.191c-4.417-0.945-9.03-0.082-12.803,2.402
	c-3.773,2.484-6.394,6.382-7.269,10.812l-7.718,39.118c-0.887,4.508,0.102,9.179,2.738,12.937c2.636,3.762,6.69,6.281,11.229,6.984
	l19.463,3.008h0.109l45.086,6.054l-0.434,1.281c-3.769,11.167-0.859,23.506,7.503,31.814c0.258,0.254,0.563,0.445,0.801,0.695
	l18.814,53.265l-39.02,59.3l-20.088,23.807c-1.578,1.867-2.214,4.352-1.734,6.749c0.484,2.395,2.035,4.438,4.214,5.547
	l38.668,19.709l-17.26,10.401L0,448.128l1.984,15.873l167.443-20.998c1.113-0.137,2.187-0.508,3.144-1.098l106.885-64.596
	l56.141-20.687l55.602-20.486l5.753-2.117c0.875-0.328,1.688-0.805,2.398-1.41l53.78-45.594l36.868-15.518L483.848,256.761z
	 M355.85,320.131l10.402-3.496c4.241-1.41,8.857,0.68,10.596,4.801l1.074,2.585l-39.355,14.511l-1.203,0.438l-6.488-15.831
	l13.073-8.71l3.695,3.746C349.783,320.334,352.963,321.092,355.85,320.131z M202.03,240.938c-4.589-0.414-8.741-2.906-11.261-6.765
	c-2.523-3.859-3.144-8.659-1.68-13.034l1.656-5h49.105l51.887,14.831l23.053,38.399l-4.184,19.076l-22.854-36.548
	c-1.32-2.132-3.563-3.522-6.059-3.761L202.03,240.938z M234.247,200.14H194.41l3.71-22.541l2.617-0.23
	c13.433-1.227,26.564-4.695,38.853-10.265l0.367,0.32L234.247,200.14z M200.823,161.226l4.719-28.639
	c0.925,4.168,3.167,7.929,6.402,10.718l14.077,12.112C217.893,158.382,209.428,160.331,200.823,161.226z M322.31,344.53
	l-8.272,3.047l3.32-15.151L322.31,344.53z M334.18,301.733l-7.199,4.8l-3.601,2.398l-0.645-1.039l4.046-18.486L334.18,301.733z
	 M319.783,246.633l-15.961-26.588c-1.043-1.742-2.71-3.02-4.663-3.578l-49.066-14.045l4-22.846l15.198,13.069
	c6.116,5.257,14.787,6.328,21.998,2.715l44.645-22.35L319.783,246.633z M355.162,136.556c0.953-0.484,2.059-0.563,3.074-0.227
	c1,0.332,1.828,1.055,2.293,2c0.988,1.969,0.199,4.367-1.766,5.363l-74.682,37.396c-1.445,0.695-3.16,0.477-4.387-0.551
	l-33.523-28.873l-23.784-20.459c-1.223-1.059-1.688-2.746-1.184-4.281c0.508-1.535,1.887-2.613,3.496-2.734h0.297
	c0.957,0,1.883,0.344,2.609,0.965l55.315,47.598L355.162,136.556z M282.969,64.151c0.043,12.015-7.604,22.705-18.986,26.548
	c-11.382,3.844-23.943-0.027-31.193-9.604l48.98-24.471C282.516,59.066,282.918,61.601,282.969,64.151z M254.971,36.153
	c6.715,0.027,13.191,2.484,18.229,6.921l-46.051,22.99c0-0.64-0.191-1.25-0.191-1.898c0.016-15.452,12.534-27.982,27.989-28.014
	H254.971z M230.301,105.957c7.503,1.191,13.64,6.625,15.734,13.928l-8-6.882c-8.167-7.058-20.471-6.316-27.732,1.675
	C214.623,108.03,222.49,104.601,230.301,105.957z M111.381,188.887l7.722-39.126l-7.855-1.542l8.871,0.871l10.78,2.312
	l-7.093,40.301l-11.718-1.808L111.381,188.887z M158.772,85.431c0.438-2.339,2.633-3.921,4.992-3.601l33.876,5.019l-6.16,32.661
	v0.176l-13.136,79.498l-38.7-5.203L158.772,85.431z M217.463,300.261L202.19,257.01l28.576,2.598l6.519,42.599l-46.598,68.072
	l-11.046-6.808l36.95-56.156C217.967,305.229,218.291,302.62,217.463,300.261z M199.136,407.221l-38.524-19.631l9.472-11.198
	l18.693,11.526c0.629,0.383,1.313,0.68,2.023,0.879c0.703,0.203,1.434,0.305,2.168,0.305h0.926
	c7.272,0.016,13.631,4.89,15.538,11.905l-2.465,1.488L199.136,407.221z M273.2,362.623c-0.477,0.176-0.938,0.398-1.374,0.664
	l-48.454,29.294c-3.277-7.604-9.363-13.646-16.991-16.877l45.911-67.069c1.148-1.672,1.617-3.723,1.305-5.726l-6.401-41.813
	l29.118,2.648l29.423,47.074l-9.487,43.317L273.2,362.623z"/>
</svg>
