<?xml version="1.0" encoding="utf-8"?>
<!-- Generator: Adobe Illustrator 14.0.0, SVG Export Plug-In . SVG Version: 6.00 Build 43363)  -->
<!DOCTYPE svg PUBLIC "-//W3C//DTD SVG 1.1//EN" "http://www.w3.org/Graphics/SVG/1.1/DTD/svg11.dtd">
<svg version="1.1" id="Layer_2" xmlns="http://www.w3.org/2000/svg" xmlns:xlink="http://www.w3.org/1999/xlink" x="0px" y="0px"
	 width="512px" height="512px" viewBox="0 0 512 512" enable-background="new 0 0 512 512" xml:space="preserve">
<path fill="#0077BC" d="M475.429,18.286H274.285c-4.849,0.001-9.499,1.928-12.928,5.358L41.179,243.822
	c-26.876,26.944-26.876,70.556,0,97.5l129.5,129.499c26.935,26.896,70.564,26.896,97.499,0l220.179-220.178
	c3.43-3.428,5.356-8.079,5.357-12.928V36.571C493.714,26.473,485.527,18.286,475.429,18.286L475.429,18.286z M457.143,230.144
	l-214.82,214.821c-12.654,12.551-33.061,12.551-45.714,0l-129.572-129.5c-12.571-12.645-12.571-33.068,0-45.714l214.82-214.894
	h175.287V230.144z"/>
<path fill="#0077BC" d="M356.571,219.429c35.347,0,64-28.654,64-64s-28.653-64-64-64s-64,28.654-64,64
	S321.225,219.429,356.571,219.429z M356.571,128C371.72,128,384,140.28,384,155.429s-12.28,27.428-27.429,27.428
	s-27.429-12.28-27.429-27.428S341.423,128,356.571,128z"/>
</svg>
