<?xml version="1.0" encoding="utf-8"?>
<!-- Generator: Adobe Illustrator 14.0.0, SVG Export Plug-In . SVG Version: 6.00 Build 43363)  -->
<!DOCTYPE svg PUBLIC "-//W3C//DTD SVG 1.1//EN" "http://www.w3.org/Graphics/SVG/1.1/DTD/svg11.dtd">
<svg version="1.1" id="Layer_1" xmlns="http://www.w3.org/2000/svg" xmlns:xlink="http://www.w3.org/1999/xlink" x="0px" y="0px"
	 width="129px" height="97px" viewBox="0 0 129 97" enable-background="new 0 0 129 97" xml:space="preserve">
<g>
	<g>
		<g>
			<path fill="#F27024" d="M118.376,70.773c-0.899-0.348-1.633-0.925-2.199-1.546c-0.47-0.512-0.831-1.079-1.097-1.874h-2.812
				l1.774,3.485c-0.35,0.068-0.738,0.167-1.165,0.203c-0.43,0.034-0.843,0.075-1.244,0.075c-0.488,0-0.961-0.007-1.414-0.041
				c-0.454-0.035-0.829-0.175-1.126-0.244l-1.596-3.479h-1.927v3.604c-0.397,0.086-0.805,0.143-1.17,0.17
				c-0.367,0.025-0.661,0.038-0.94,0.038c-0.297,0-0.664-0.013-1.013-0.038c-0.35-0.027-0.851-0.084-1.248-0.17v-3.604h-2.781v3.001
				c-0.398,0.104-0.668,0.209-1.078,0.314c-0.409,0.104-0.854,0.205-1.317,0.301c-0.462,0.097-0.941,0.17-1.431,0.222
				c-0.489,0.054-0.971,0.078-1.443,0.078c-0.89,0-1.746-0.068-2.566-0.208c-0.82-0.139-1.541-0.424-2.162-0.851
				c-0.618-0.429-1.111-1.14-1.479-1.951c-0.11-0.246-0.203-0.509-0.279-0.906h-6.127v3.604c-0.397,0.068-0.842,0.121-1.209,0.156
				c-0.365,0.035-0.687,0.052-0.983,0.052s-0.618-0.017-0.984-0.052c-0.367-0.035-0.797-0.088-1.194-0.156v-3.604h-5.563v3.604
				c-0.397,0.086-0.862,0.143-1.229,0.17c-0.366,0.025-0.689,0.038-0.969,0.038c-0.297,0-0.603-0.013-0.969-0.038
				c-0.366-0.027-0.808-0.084-1.204-0.17v-3.604h-3.181v3.604c-0.397,0.086-0.87,0.143-1.237,0.17
				c-0.366,0.025-0.693,0.038-0.972,0.038c-0.297,0-0.597-0.013-0.963-0.038c-0.367-0.027-0.802-0.084-1.199-0.17v-3.604h-3.569
				c0.115,0.397,0.222,0.688,0.321,1.024c0.183,0.628,0.284,1.328,0.301,2.009c-1.554,0.577-3.143,0.887-4.765,0.887
				c-1.257,0-2.335-0.163-3.235-0.512c-0.898-0.348-1.632-0.919-2.198-1.54c-0.469-0.511-0.831-1.073-1.097-1.868h-4.957
				l-1.292,3.485c-0.367,0.087-0.737,0.189-1.113,0.216s-0.737,0.063-1.086,0.063c-0.35,0-0.707-0.001-1.074-0.029
				c-0.367-0.023-0.698-0.169-0.995-0.256l-1.265-3.479h-4.836c-0.302,0.795-0.712,1.377-1.243,1.888
				c-0.655,0.628-1.502,1.159-2.541,1.499c-1.038,0.341-2.291,0.533-3.757,0.533c-0.856,0-1.679-0.018-2.351-0.08
				c-0.671-0.061-1.372-0.132-2.167-0.235v-3.604h-2.782v3.053c-0.398,0.193-1.417,0.385-2.359,0.576
				c-0.942,0.191-1.913,0.287-2.96,0.287c-0.908,0-1.729-0.082-2.489-0.247c-0.759-0.166-1.403-0.433-1.944-0.799
				c-0.414-0.279-0.686-0.63-0.961-1.047c-0.306,0.508-0.414,1.101-0.414,1.736v12.375c0,1.864,1.375,3.537,3.239,3.537h117.94
				c1.864,0,3.202-1.673,3.202-3.537V70.913c0-0.163,0.069-0.321,0.049-0.479c-1.553,0.575-3.096,0.863-4.718,0.863
				C120.31,71.298,119.275,71.122,118.376,70.773"/>
			<path fill-rule="evenodd" clip-rule="evenodd" fill="#F27024" d="M33.379,41.354l5.874-4.278l2.887,1.686l1.295-1.591l1.69,0.595
				l4.273-2.583l1.888,0.596l5.861-3.875l7.252,2.683l1.269-0.935c0.635-2.232,0.981-4.586,0.981-7.021
				C66.649,12.476,55.175,1,41.02,1C26.863,1,15.389,12.476,15.389,26.631c0,7.593,3.304,14.411,8.55,19.104l7.13-4.566
				L33.379,41.354z"/>
		</g>
		<g>
			<defs>
				<polygon id="SVGID_1_" points="64.399,35.779 57.445,33.444 51.782,36.971 49.597,36.574 45.325,39.058 43.736,38.362 
					42.146,40.051 39.066,38.362 33.204,42.933 31.417,42.237 13.038,53.513 118.842,53.364 103.74,41.839 96.985,39.952 
					88.144,32.699 85.659,34.885 79.201,36.772 72.348,30.613 				"/>
			</defs>
			<clipPath id="SVGID_2_">
				<use xlink:href="#SVGID_1_"  overflow="visible"/>
			</clipPath>
			<defs>
				<filter id="Adobe_OpacityMaskFilter" filterUnits="userSpaceOnUse" x="13.038" y="30.613" width="105.804" height="22.899">
					<feColorMatrix  type="matrix" values="1 0 0 0 0  0 1 0 0 0  0 0 1 0 0  0 0 0 1 0"/>
				</filter>
			</defs>
			<mask maskUnits="userSpaceOnUse" x="13.038" y="30.613" width="105.804" height="22.899" id="SVGID_3_">
				<g filter="url(#Adobe_OpacityMaskFilter)">
					
						<linearGradient id="SVGID_4_" gradientUnits="userSpaceOnUse" x1="-335.1978" y1="348.6563" x2="-334.8004" y2="348.6563" gradientTransform="matrix(0 57.001 57.001 0 -19807.8613 19137.2168)">
						<stop  offset="0" style="stop-color:#FFFFFF"/>
						<stop  offset="1" style="stop-color:#000000"/>
					</linearGradient>
					<rect x="13.038" y="30.613" clip-path="url(#SVGID_2_)" fill="url(#SVGID_4_)" width="105.804" height="22.899"/>
				</g>
			</mask>
			
				<linearGradient id="SVGID_5_" gradientUnits="userSpaceOnUse" x1="-335.1978" y1="348.6563" x2="-334.8004" y2="348.6563" gradientTransform="matrix(0 57.001 57.001 0 -19807.8613 19137.2168)">
				<stop  offset="0" style="stop-color:#76BADD"/>
				<stop  offset="1" style="stop-color:#FFFFFF"/>
			</linearGradient>
			
				<rect x="13.038" y="30.613" clip-path="url(#SVGID_2_)" mask="url(#SVGID_3_)" fill="url(#SVGID_5_)" width="105.804" height="22.899"/>
		</g>
		<g>
			<polygon fill="#FFFFFD" points="21.035,52.112 31.118,45.896 34.298,45.896 39.464,41.284 42.444,42.198 44.232,41.126 
				45.821,41.126 49.795,38.701 52.379,38.184 57.147,34.548 52.379,39.287 49.795,40.166 46.716,42.939 44.531,42.737 
				39.861,47.306 36.185,48.596 32.211,51.229 33.603,48.396 33.801,47.274 			"/>
			<polygon fill="#FFFFFD" points="46.616,49.19 53.67,43.727 55.558,43.429 60.227,39.853 63.406,39.356 71.751,33.196 
				65.89,40.35 62.313,42.138 60.127,46.608 58.836,46.41 57.544,48.595 55.558,47.205 54.365,48.495 53.869,45.913 			"/>
			<polygon fill="#FFFFFD" points="83.871,40.25 86.553,37.17 87.845,34.289 85.958,36.375 81.289,37.964 			"/>
		</g>
		<g>
			<defs>
				<polygon id="SVGID_6_" points="78.11,41.845 75.726,40.36 72.942,36.995 73.042,42.879 73.438,45.904 73.737,53.445 
					110.496,53.445 106.82,49.38 99.072,48.198 93.508,45.216 85.857,44.224 82.083,40.647 80.592,39.853 78.11,37.569 
					72.446,32.802 				"/>
			</defs>
			<clipPath id="SVGID_7_">
				<use xlink:href="#SVGID_6_"  overflow="visible"/>
			</clipPath>
			<defs>
				<filter id="Adobe_OpacityMaskFilter_1_" filterUnits="userSpaceOnUse" x="69.241" y="26.894" width="44.46" height="32.458">
					<feColorMatrix  type="matrix" values="1 0 0 0 0  0 1 0 0 0  0 0 1 0 0  0 0 0 1 0"/>
				</filter>
			</defs>
			<mask maskUnits="userSpaceOnUse" x="69.241" y="26.894" width="44.46" height="32.458" id="SVGID_8_">
				<g filter="url(#Adobe_OpacityMaskFilter_1_)">
					
						<linearGradient id="SVGID_9_" gradientUnits="userSpaceOnUse" x1="-335.2861" y1="347.7832" x2="-334.8888" y2="347.7832" gradientTransform="matrix(8.0242 50.4021 50.4021 -8.0242 -14749.1279 19720.5879)">
						<stop  offset="0" style="stop-color:#FFFFFF"/>
						<stop  offset="1" style="stop-color:#000000"/>
					</linearGradient>
					<polygon clip-path="url(#SVGID_7_)" fill="url(#SVGID_9_)" points="109.555,26.894 113.701,52.935 73.387,59.353 
						69.241,33.312 					"/>
				</g>
			</mask>
			
				<linearGradient id="SVGID_10_" gradientUnits="userSpaceOnUse" x1="-335.2861" y1="347.7832" x2="-334.8888" y2="347.7832" gradientTransform="matrix(8.0242 50.4021 50.4021 -8.0242 -14749.1279 19720.5879)">
				<stop  offset="0" style="stop-color:#44A6D2"/>
				<stop  offset="1" style="stop-color:#FFFFFF"/>
			</linearGradient>
			<polygon clip-path="url(#SVGID_7_)" mask="url(#SVGID_8_)" fill="url(#SVGID_10_)" points="109.555,26.894 113.701,52.935 
				73.387,59.353 69.241,33.312 			"/>
		</g>
		<g>
			<defs>
				<polygon id="SVGID_11_" points="89.732,40.149 91.72,40.448 96.688,43.229 103.74,45.416 106.124,48.495 110,52.768 
					118.146,53.761 103.84,43.727 97.083,42.336 87.845,34.289 				"/>
			</defs>
			<clipPath id="SVGID_12_">
				<use xlink:href="#SVGID_11_"  overflow="visible"/>
			</clipPath>
			<defs>
				<filter id="Adobe_OpacityMaskFilter_2_" filterUnits="userSpaceOnUse" x="78.824" y="20.252" width="48.342" height="47.546">
					<feColorMatrix  type="matrix" values="1 0 0 0 0  0 1 0 0 0  0 0 1 0 0  0 0 0 1 0"/>
				</filter>
			</defs>
			<mask maskUnits="userSpaceOnUse" x="78.824" y="20.252" width="48.342" height="47.546" id="SVGID_13_">
				<g filter="url(#Adobe_OpacityMaskFilter_2_)">
					
						<linearGradient id="SVGID_14_" gradientUnits="userSpaceOnUse" x1="-335.7266" y1="347.7871" x2="-335.3291" y2="347.7871" gradientTransform="matrix(34.0004 50.5006 50.5006 -34.0004 -6053.0552 28812.2695)">
						<stop  offset="0" style="stop-color:#FFFFFF"/>
						<stop  offset="1" style="stop-color:#000000"/>
					</linearGradient>
					<polygon clip-path="url(#SVGID_12_)" fill="url(#SVGID_14_)" points="108.695,20.252 127.166,47.688 97.296,67.798 
						78.824,40.362 					"/>
				</g>
			</mask>
			
				<linearGradient id="SVGID_15_" gradientUnits="userSpaceOnUse" x1="-335.7261" y1="347.7881" x2="-335.3286" y2="347.7881" gradientTransform="matrix(34.0004 50.5006 50.5006 -34.0004 -6053.1177 28812.2695)">
				<stop  offset="0" style="stop-color:#44A6D2"/>
				<stop  offset="1" style="stop-color:#FFFFFF"/>
			</linearGradient>
			<polygon clip-path="url(#SVGID_12_)" mask="url(#SVGID_13_)" fill="url(#SVGID_15_)" points="108.695,20.252 127.166,47.688 
				97.296,67.798 78.824,40.362 			"/>
		</g>
		<g>
			<defs>
				<polygon id="SVGID_16_" points="58.936,36.375 59.631,37.865 62.71,37.17 57.445,33.842 				"/>
			</defs>
			<clipPath id="SVGID_17_">
				<use xlink:href="#SVGID_16_"  overflow="visible"/>
			</clipPath>
			<defs>
				<filter id="Adobe_OpacityMaskFilter_3_" filterUnits="userSpaceOnUse" x="55.718" y="31.582" width="8.719" height="8.544">
					<feColorMatrix  type="matrix" values="1 0 0 0 0  0 1 0 0 0  0 0 1 0 0  0 0 0 1 0"/>
				</filter>
			</defs>
			<mask maskUnits="userSpaceOnUse" x="55.718" y="31.582" width="8.719" height="8.544" id="SVGID_18_">
				<g filter="url(#Adobe_OpacityMaskFilter_3_)">
					
						<linearGradient id="SVGID_19_" gradientUnits="userSpaceOnUse" x1="-334.6875" y1="348.5723" x2="-334.2901" y2="348.5723" gradientTransform="matrix(10.5 18.5 18.5 -10.5 -2875.9219 9884.7188)">
						<stop  offset="0" style="stop-color:#FFFFFF"/>
						<stop  offset="1" style="stop-color:#000000"/>
					</linearGradient>
					<polygon clip-path="url(#SVGID_17_)" fill="url(#SVGID_19_)" points="61.428,31.582 64.438,36.885 58.729,40.126 
						55.718,34.822 					"/>
				</g>
			</mask>
			
				<linearGradient id="SVGID_20_" gradientUnits="userSpaceOnUse" x1="-334.6865" y1="348.5723" x2="-334.2891" y2="348.5723" gradientTransform="matrix(10.5 18.5 18.5 -10.5 -2875.9375 9884.7031)">
				<stop  offset="0" style="stop-color:#44A6D2"/>
				<stop  offset="1" style="stop-color:#FFFFFF"/>
			</linearGradient>
			<polygon clip-path="url(#SVGID_17_)" mask="url(#SVGID_18_)" fill="url(#SVGID_20_)" points="61.428,31.582 64.438,36.885 
				58.729,40.126 55.718,34.822 			"/>
		</g>
		<g>
			<polygon fill="#0378BC" points="13.038,53.911 31.069,42.36 33.379,42.548 39.253,38.27 42.14,39.954 43.435,38.363 
				45.125,38.958 49.397,36.375 51.285,36.971 57.147,33.097 64.399,35.78 72.348,29.918 79.4,36.674 84.964,34.687 88.144,32.203 
				96.985,40.35 104.139,41.343 118.842,53.761 103.84,43.23 97.184,41.145 88.144,33.892 86.256,35.581 80.097,37.17 
				82.778,39.058 86.256,42.733 94.602,43.628 99.37,46.41 106.125,48.495 98.972,47.005 94.401,44.82 85.958,43.528 82.381,39.555 
				78.606,37.469 72.546,32.004 63.108,38.164 60.525,38.064 55.359,42.038 52.577,42.237 48.106,45.515 52.28,41.641 55.26,41.243 
				60.426,37.27 62.71,37.17 63.704,36.575 57.445,33.883 51.683,37.948 49,37.948 45.425,39.993 43.935,39.525 42.345,40.979 
				39.464,39.771 33.205,44.034 31.218,43.234 			"/>
		</g>
		<g>
			<path fill="#FFFFFF" d="M25.578,72.489v3.668c-0.454-0.505-0.914-0.878-1.379-1.119c-0.466-0.24-0.954-0.361-1.464-0.361
				c-0.959,0-1.738,0.331-2.338,0.994c-0.6,0.662-0.9,1.521-0.9,2.577c0,0.982,0.303,1.801,0.909,2.455
				c0.605,0.653,1.382,0.98,2.33,0.98c0.521,0,1.006-0.117,1.455-0.351c0.449-0.234,0.912-0.616,1.388-1.146v3.683
				c-0.527,0.253-1.057,0.447-1.59,0.582c-0.252,0.062-0.512,0.109-0.778,0.144c-0.266,0.033-0.54,0.05-0.82,0.05
				c-0.69,0-1.318-0.08-1.884-0.239c-0.566-0.16-1.083-0.403-1.548-0.729c-0.914-0.611-1.614-1.388-2.099-2.327
				c-0.485-0.94-0.728-1.996-0.728-3.169c0-0.938,0.151-1.792,0.455-2.563c0.303-0.771,0.765-1.475,1.388-2.108
				c0.578-0.595,1.235-1.043,1.973-1.343s1.552-0.45,2.444-0.45c0.555,0,1.09,0.063,1.606,0.189S25.04,72.227,25.578,72.489z"/>
			<path fill="#FFFFFF" d="M44.698,84.325V72.01h3.356v9.438h4.172v2.877H44.698z"/>
			<path fill="#FFFFFF" d="M71.002,72.01h3.349v5.984c0,0.913,0.021,1.553,0.066,1.917c0.045,0.363,0.125,0.688,0.24,0.975
				c0.115,0.285,0.335,0.513,0.66,0.681s0.715,0.252,1.169,0.252c0.225,0,0.435-0.02,0.631-0.059s0.373-0.101,0.53-0.185
				c0.325-0.169,0.553-0.409,0.682-0.724c0.101-0.252,0.175-0.578,0.223-0.979s0.071-1.027,0.071-1.879v-0.841V72.01h3.34v6.507
				c0,0.673-0.02,1.257-0.059,1.753c-0.04,0.496-0.102,0.909-0.186,1.24c-0.162,0.649-0.438,1.196-0.824,1.639
				c-0.415,0.493-0.992,0.866-1.732,1.118s-1.632,0.378-2.676,0.378c-1.065,0-1.96-0.124-2.683-0.374
				c-0.724-0.249-1.302-0.623-1.733-1.122c-0.37-0.442-0.641-0.989-0.812-1.639c-0.171-0.65-0.257-1.648-0.257-2.993v-1.277V72.01z"
				/>
			<path fill="#FFFFFF" d="M101.739,84.325V72.01h3.373c1.401,0,2.376,0.044,2.923,0.131s1.02,0.242,1.418,0.467
				c0.454,0.252,0.8,0.593,1.038,1.022c0.238,0.429,0.357,0.915,0.357,1.459c0,0.701-0.178,1.256-0.534,1.666
				c-0.355,0.409-0.924,0.723-1.703,0.941c0.421,0,0.811,0.084,1.17,0.253c0.324,0.151,0.619,0.376,0.883,0.673
				c0.493,0.544,0.74,1.273,0.74,2.187c0,0.662-0.138,1.24-0.412,1.733c-0.275,0.493-0.673,0.88-1.194,1.161
				c-0.421,0.219-0.943,0.377-1.569,0.475c-0.625,0.099-1.63,0.147-3.016,0.147H101.739z M104.852,76.931h0.673
				c0.83,0,1.399-0.092,1.708-0.277c0.308-0.185,0.462-0.499,0.462-0.942c0-0.459-0.146-0.784-0.441-0.976
				c-0.294-0.19-0.854-0.286-1.678-0.286h-0.724V76.931z M104.852,81.81h1.178c0.802,0,1.367-0.099,1.694-0.298
				c0.328-0.199,0.492-0.531,0.492-0.997c0-0.505-0.154-0.862-0.462-1.072c-0.309-0.211-0.867-0.315-1.675-0.315h-1.228V81.81z"/>
		</g>
		<g>
			<g>
				<g>
					<defs>
						<rect id="SVGID_21_" x="35.669" y="10.755" width="23.15" height="47.113"/>
					</defs>
					<clipPath id="SVGID_22_">
						<use xlink:href="#SVGID_21_"  overflow="visible"/>
					</clipPath>
					<path clip-path="url(#SVGID_22_)" fill-rule="evenodd" clip-rule="evenodd" d="M38.289,18.2
						c0.508-0.284,0.754-0.833,1.443-0.936c0.035-0.088,0.021-0.227,0.16-0.214c-0.04-0.148,0.003-0.326,0.107-0.4
						c0.083-0.059,0.239-0.012,0.347-0.054c0.059-0.021,0.088-0.1,0.161-0.161c0.177-0.144,0.425-0.322,0.614-0.347
						c0.163-0.021,0.364,0.077,0.534,0.027c0.244-0.073,0.275-0.497,0.588-0.375c0.09-0.221,0.277-0.346,0.294-0.641
						c0.162-0.27,0.52-0.261,0.721-0.482c0.104-0.111,0.154-0.288,0.24-0.4c0.256-0.331,0.608-0.503,0.91-0.802
						c0.173-0.171,0.271-0.42,0.534-0.481c0.573-0.595,1.079-1.256,2.112-1.389c0.28-0.183,0.622-0.207,0.962-0.321
						c0.337-0.113,0.604-0.357,0.881-0.427c0.703-0.182,1.043,0.247,1.417,0.561c0.809,0.678,1.548,1.583,2.219,2.165
						c0.12-0.577,0.445-0.808,0.801-1.15c0.205-0.198,0.371-0.459,0.561-0.587c0.659-0.44,1.815-0.61,2.78-0.24
						c0.486,0.186,1.156,0.755,1.496,1.256c0.304,0.447,0.734,1.425,0.614,2.165c-0.02,0.125-0.146,0.228-0.187,0.374
						c-0.036,0.128,0.003,0.281-0.026,0.4c-0.064,0.261-0.241,0.462-0.347,0.642c0.006,0.167,0.223,0.198,0.187,0.375
						c-0.024,0.117-0.207,0.206-0.374,0.347c-0.254,0.216-0.535,0.429-0.855,0.401c-0.074,0.345-0.047,0.791-0.562,0.695
						c-0.159,0.081-0.182,0.298-0.479,0.24c0.011,0.119-0.008,0.207-0.054,0.268c-0.36-0.039-0.516,0.213-0.696,0.427
						c0.728,0.35,1.322,1.047,1.256,2.032c-0.011,0.173-0.108,0.331-0.107,0.533c0,0.15,0.107,0.33,0.134,0.508
						c0.035,0.235-0.019,0.492,0,0.721c0.033,0.446,0.413,1.085-0.027,1.336c-0.134-0.296,0.065-0.789-0.187-0.988
						c-0.033-0.169,0.082-0.329-0.054-0.374c-0.119,0.045-0.165,0.384-0.294,0.509c0.082,0.144,0.195,0.276,0.187,0.453
						c-0.006,0.15-0.143,0.222-0.187,0.375c-0.082,0.291-0.026,0.617-0.213,0.774c0.089,0.375,0.118,0.965,0.106,1.283
						c0.073,0.141,0.166,0.262,0.134,0.508c0.439,0.911,0.177,2.22,0.4,3.261c0.152,0.706,0.702,1.382,1.016,2.057
						c0.054,0.116,0.053,0.245,0.107,0.348c0.145,0.277,0.387,0.52,0.561,0.775c0.193,0.286,0.322,0.595,0.535,0.828
						c-0.069,0.155,0.075,0.311,0.052,0.481c-0.013,0.111-0.147,0.179-0.187,0.294c-0.011,0.037,0.007,0.138,0,0.187
						c-0.027,0.207-0.092,0.468-0.186,0.615c-0.153,0.234-0.506,0.329-0.748,0.561c-0.114,0.108-0.24,0.457-0.481,0.374
						c-0.194-0.066,0-0.267-0.134-0.294c-0.225-0.019-0.097,0.151-0.08,0.213c0.101,0.38,0.25,0.689,0.374,1.017
						c0.42,1.114,0.776,2.337,1.176,3.474c0.081,0.229,0.24,0.475,0.267,0.668c0.037,0.247-0.05,0.633-0.133,0.908
						c-0.237,0.787-0.892,1.348-1.31,1.871c-0.681,0.849-1.201,1.697-1.897,2.324c-0.141,0.128-0.396,0.236-0.507,0.32
						c-0.299,0.226-0.556,0.533-0.855,0.776c-0.899,0.726-1.814,1.547-2.298,2.591c0.057,0.199,0.434,0.255,0.455,0.428
						c0.024,0.21-0.189,0.117-0.214,0.348c0.328,0.021,0.662,0.145,0.588,0.479c0.257,0.127,0.316,0.4,0.454,0.643
						c0.099,0.177,0.282,0.282,0.213,0.588c0.356,0.054,0.478,0.259,0.749,0.428c0.189,0.118,0.404,0.19,0.508,0.295
						c0.235,0.235,0.481,0.769,0.374,0.961c-0.158,0.281-1.425,0.592-2.112,0.32c-0.26-0.102-0.4-0.311-0.614-0.427
						c-0.237-0.129-0.499-0.178-0.722-0.294c-0.357-0.187-0.596-0.539-0.936-0.694c0.03,0.388,0.436,0.402,0.455,0.8
						c-0.012,0.123-0.086,0.104-0.188,0.081c0.13,0.108,0.1,0.261,0.188,0.374c0.161,0.21,0.608,0.374,0.748,0.562
						c0.084,0.111,0.074,0.288,0.16,0.401c0.076,0.1,0.238,0.165,0.374,0.267c0.365,0.271,0.745,0.443,1.016,0.804
						c0.099,0.722-0.141,0.991-0.774,1.04c-0.826,0.064-2.006-0.144-2.646-0.294c-0.141-0.032-0.297-0.112-0.347-0.16
						c-0.119-0.013-0.134,0.037-0.214,0c-0.152-0.053-0.187-0.223-0.428-0.187c-0.103-0.058-0.095-0.225-0.187-0.293
						c-0.387-0.038-0.679-0.066-1.042-0.161c-0.101-0.091-0.238-0.09-0.375-0.16c-0.062-0.032-0.102-0.109-0.188-0.16
						c-0.079-0.05-0.196-0.063-0.267-0.107c-0.437-0.287-0.428-0.523-0.213-1.043c0.134-0.326,0.25-0.613,0.507-0.694
						c0.09-0.203,0.133-0.455,0.295-0.588c-0.1-0.151-0.192-0.07-0.215-0.268c-0.021-0.183,0.185-0.404,0.401-0.428
						c0.189-0.02,0.397,0.169,0.507,0.027c0.021-0.392,0.141-0.641,0.054-0.989c-0.021-0.084-0.125-0.239-0.186-0.32
						c-0.093-0.119-0.218-0.162-0.242-0.268c-0.043-0.194,0.086-0.33,0.161-0.481c0.027-0.09-0.039-0.18-0.089-0.191
						c0.175-0.395,0.009-0.914,0.009-1.519c0-1.429,0.06-2.894,0.347-3.981c-0.181,0.049-0.299,0.164-0.48,0.215
						c-0.052-0.102-0.062-0.244-0.055-0.401c-0.267-0.312-0.314-0.808-0.48-1.203c-0.23-0.544-0.466-1.085-0.749-1.55
						c-0.143-0.235-0.355-0.418-0.508-0.667c-0.433-0.71-0.562-1.461-1.175-1.979c-0.157-0.132-0.313-0.181-0.481-0.321
						c-0.332-0.274-0.538-0.811-1.069-0.908c-0.109,0.231,0.064,0.322,0.134,0.454c-0.034,0.228-0.325,0.169-0.481,0.214
						c-0.25,0.071-0.734,0.167-0.988,0.027c0.077-0.296,0.529-0.218,0.774-0.347c0.435-1.329-1.183-2.256-0.294-3.313
						c-0.103-0.096-0.037-0.253-0.08-0.375c-0.038-0.11-0.175-0.212-0.24-0.347c-0.084-0.175-0.106-0.4-0.187-0.535
						c-0.14-0.234-0.397-0.353-0.481-0.588c-0.076-0.212-0.041-0.48-0.081-0.721c-0.022-0.139-0.094-0.272-0.106-0.4
						c-0.047-0.512,0.23-1.047,0.188-1.658c-0.02-0.106-0.229-0.021-0.241-0.134c0.018-0.187,0.216-0.342,0.241-0.587
						c0.017-0.169-0.042-0.349-0.028-0.535c0.015-0.156,0.088-0.293,0.108-0.454c0.056-0.461-0.091-0.886-0.294-1.175
						c-0.188,0.053-0.25,0.231-0.214,0.508c-0.087-0.04-0.503-0.168-0.293-0.428c-0.353,0.3-1.076,0.197-1.631,0.134
						c0.062-0.226-0.011-0.811,0.348-0.829c-0.337,0.03-0.711-1.04-0.294-1.095c0.177-0.025,0.186,0.119,0.267,0.24
						c0.152-0.071,0.394,0.043,0.508,0c-0.036-0.229-0.314-0.179-0.427-0.348c-0.041-0.061,0.023-0.122-0.081-0.161
						c0.015-0.221,0.003-0.301,0-0.533c-0.507-0.217-1.147-0.43-1.389-0.936c-0.133-0.278-0.246-0.75-0.188-1.176
						c0.019-0.138,0.131-0.255,0.161-0.401c0.052-0.264-0.032-0.534,0.027-0.801c-1.12-0.038-1.601-0.716-1.764-1.71
						c-0.152-0.151-0.42-0.186-0.481-0.428v-0.16C36.156,19.333,36.972,17.927,38.289,18.2 M52.585,14.511
						c-0.031-0.004-0.047,0.006-0.053,0.027c-0.082,0.578-0.246,1.073-0.616,1.363c-0.01,0.304,0.265,0.325,0.241,0.642
						c-0.153,0.031-0.274-0.186-0.321-0.348c-0.178,0.116-0.28,0.45-0.374,0.562c0.254,0.039,0.542,0.046,0.828,0.053
						c0.061-0.082,0.13-0.156,0.161-0.267c-0.19-0.26-0.062-0.612,0.134-0.776c-0.144-0.335-0.197-0.774,0.187-0.881
						C52.687,14.786,52.587,14.697,52.585,14.511 M42.057,16.115c-0.108-0.03-0.132,0.082-0.08,0.134
						C42.023,16.224,42.069,16.199,42.057,16.115 M41.121,16.356c0.271,0.014,0.437,0.132,0.508,0.347
						c0.041-0.109,0.266-0.037,0.214-0.241C41.539,16.523,41.366,16.176,41.121,16.356 M55.471,26.27
						c-0.188,0.132-0.018,0.344,0,0.696c0.021,0.416-0.116,0.718,0.188,0.828C55.684,27.306,55.646,26.646,55.471,26.27
						 M54.697,30.893c-0.085,0.146-0.107,0.357-0.321,0.374c0.037,0.071,0.05,0.305,0,0.375c0.207,0.166,0.441,0.307,0.588,0.533
						c0.029,0.197,0.02,0.349,0.053,0.481c0.149,0.584,0.934,0.752,0.989,1.284c0.027,0.262-0.091,0.42,0,0.614
						c0.032,0.066,0.12,0.08,0.161,0.134c0.034,0.045,0.02,0.127,0.053,0.187c0.053,0.096,0.177,0.171,0.214,0.24
						c0.027,0.053,0.018,0.152,0.053,0.241c0.067,0.163,0.235,0.224,0.133,0.481c0.055,0.08,0.137,0.132,0.188,0.212
						c0.119-0.254,0.59-0.158,0.722-0.399c-0.008-0.125,0-0.231,0.053-0.294c-0.237-0.187-0.268-0.501-0.427-0.83
						c-0.073-0.152-0.216-0.305-0.267-0.453c-0.084-0.246,0.007-0.531-0.081-0.802c-0.054-0.166-0.358-0.398-0.534-0.586
						c-0.187-0.203-0.356-0.405-0.481-0.563C55.401,31.63,54.976,31.313,54.697,30.893 M42.831,35.784
						c0,0.336-0.196,0.48-0.481,0.534c0.188,0.8,0.578,1.4,0.722,2.246c0.609,0.038,0.921,0.469,1.283,0.801
						c0.196,0.179,0.408,0.31,0.615,0.481c0.383,0.319,0.633,0.786,0.935,1.255c0.286,0.445,0.663,0.844,0.936,1.258
						c0.612,0.926,1.003,1.98,1.444,2.911c0.309-0.437,0.585-0.909,0.828-1.415c-0.45-0.826-0.266-1.842-0.641-2.593
						c-0.182-0.361-0.402-0.699-0.615-1.016c-0.296-0.44-0.695-0.688-0.909-1.202c-0.191-0.049-0.36-0.12-0.614-0.107
						c-0.032,0.202,0.025,0.313,0.107,0.401c-0.099,0.129-0.264,0.193-0.428,0.188c-0.106-0.004-0.17-0.095-0.293-0.107
						c-0.196-0.022-0.438,0.155-0.614,0c0.144-0.213,0.708-0.005,0.828-0.241c0.155-1.224-0.784-1.72-0.749-2.994
						c-0.311,0.063-0.576,0.173-0.881,0.242c0.342,0.413,0.935,1.305,0.454,1.95c-0.215-0.056-0.464-0.051-0.64-0.16
						c-0.132-0.082-0.228-0.375-0.348-0.589c-0.257-0.455-0.451-0.832-0.401-1.578C43.2,35.948,42.987,35.896,42.831,35.784
						 M45.477,36.265c0.22,0.919,0.618,1.662,0.855,2.565c0.586-0.085,0.757,0.262,0.988,0.588c0.106,0.147,0.293,0.243,0.402,0.374
						c0.358,0.433,0.464,1.054,0.854,1.443c0.23,0.615,0.286,1.405,0.508,2.031c0.038-0.158,0.245-0.305,0.24-0.481
						c-0.004-0.124-0.173-0.257-0.213-0.374c-0.042-0.121-0.019-0.263-0.054-0.401c-0.113-0.45-0.375-0.945-0.561-1.47
						c-0.171-0.484-0.351-0.98-0.507-1.496c-0.35-1.14-0.45-2.318-1.07-3.074c-0.367,0.042-0.734,0.228-1.149,0.134
						C45.689,36.173,45.602,36.237,45.477,36.265 M43.606,36.184c-0.124,0.755,0.111,1.477,0.669,1.711
						c0.208-0.304,0.16-0.932,0.08-1.255C44.141,36.453,43.992,36.199,43.606,36.184 M54.349,42.491
						c-0.913,0.023-1.43,0.441-1.924,0.883c-0.249,1.568-1.032,2.602-1.336,4.115c1.217-1.42,1.662-3.613,3.394-4.518
						C54.378,42.872,54.329,42.716,54.349,42.491 M47.587,53.501c-0.136,0.033-0.231,0.107-0.24,0.267
						c0.062,0.009,0.099,0.043,0.187,0.026C47.516,53.66,47.571,53.6,47.587,53.501"/>
				</g>
			</g>
			<g>
				<g>
					<defs>
						<rect id="SVGID_23_" x="16.17" y="12.261" width="24.86" height="44.279"/>
					</defs>
					<clipPath id="SVGID_24_">
						<use xlink:href="#SVGID_23_"  overflow="visible"/>
					</clipPath>
					<path clip-path="url(#SVGID_24_)" fill-rule="evenodd" clip-rule="evenodd" d="M35.199,15.122
						c0.048,0.201,0.126,0.398,0.119,0.646c-0.007,0.243-0.118,0.47-0.085,0.678c0.036,0.223,0.272,0.385,0.254,0.578
						c-0.017,0.195-0.266,0.254-0.423,0.288c0.052,0.374,0.129,0.702-0.238,0.781c0.051,0.096,0.146,0.149,0.135,0.271
						c-0.013,0.155-0.198,0.173-0.255,0.289c-0.081,0.166-0.052,0.535-0.169,0.679c-0.234,0.288-0.828,0.031-1.291,0.187
						c-0.205,0.07-0.499,0.408-0.509,0.628c-0.003,0.077,0.078,0.194,0.102,0.289c0.093,0.372,0.071,0.769,0.12,1.137
						c0.15,1.156,0.796,2.439,0.423,3.685c-0.332,1.109-1.076,1.723-1.477,2.817c0.301,0.538,0.333,1.361,0.509,2.021
						c0.141,0.521,0.344,1.026,0.527,1.528c0.188,0.515,0.362,1.026,0.509,1.545c0.148,0.524,0.189,1.083,0.458,1.58
						c0.174,0.094,0.414,0.361,0.696,0.475c0.207,0.083,0.589,0.095,0.578,0.306c-0.012,0.228-0.455,0.175-0.696,0.153
						c0.048,0.14,0.172,0.335,0.272,0.559c0.108,0.247,0.376,0.659,0.084,0.781c0.101,0.083,0.233,0.198,0.187,0.374
						c0.448,0.122,0.682,0.492,0.917,0.815c0.591,0.815,1.052,1.786,1.478,2.818c0.076,0.186,0.213,0.485,0.186,0.663
						c-0.037,0.242-0.447,0.479-0.61,0.577c-0.239,0.144-0.584,0.329-0.9,0.288c-0.321-0.042-0.625-0.496-0.833-0.781
						c-0.468-0.645-0.837-1.32-1.188-2.037c-0.181-0.369-0.402-0.751-0.476-1.137c-0.018-0.093,0.005-0.231-0.018-0.306
						c-0.04-0.138-0.185-0.178-0.203-0.322c-0.038-0.296,0.167-0.388,0.288-0.561c-0.044-0.142-0.153-0.22-0.153-0.408
						c-0.248-0.018-0.353-0.179-0.407-0.391c-0.092-0.028-0.231-0.034-0.305-0.102c-0.213-0.193-0.113-0.586-0.187-0.899
						c-0.075-0.317-0.24-0.66-0.34-1.018c-0.28-1-0.895-1.941-1.272-2.751c-0.057,0.268-0.086,0.573-0.12,0.9
						c-0.031,0.301-0.167,0.601-0.135,0.867c0.034,0.3,0.42,0.643,0.527,0.882c0.055,0.125,0.043,0.262,0.084,0.407
						c0.04,0.142,0.131,0.291,0.187,0.442c0.164,0.448,0.271,0.946,0.34,1.527c0.08,0.677,0.141,1.585,0.424,2.055
						c0.121,0.2,0.331,0.379,0.492,0.561c0.488,0.546,1.007,1.134,1.324,1.833c-0.028,0.123-0.137,0.168-0.238,0.219
						c0.312,0.439,0.502,0.882,0.594,1.461c0.097,0.608-0.059,1.242-0.017,1.918c0.027,0.45,0.208,0.887,0.322,1.342
						c0.083,0.335,0.171,0.662,0.255,1.002c0.43,1.728,0.664,3.569,1.494,4.939c0.399-0.043,0.399,0.2,0.577,0.408
						c0.1,0.115,0.25,0.241,0.34,0.322c0.519,0.469,0.98,0.771,1.969,0.748c0.179-0.005,0.415-0.031,0.645-0.068
						c0.244-0.038,0.456-0.09,0.629-0.035c0.261,0.085,0.406,0.523,0.289,0.849c-0.187,0.518-1.011,0.744-1.629,0.85
						c-0.533,0.09-1.14,0.135-1.75,0.085c-0.254-0.021-0.503-0.07-0.695,0c-0.176,0.064-0.295,0.278-0.476,0.356
						c-0.218,0.095-0.81,0.162-1.12,0.153c-0.389-0.012-0.81-0.188-0.849-0.543c-0.032-0.284,0.092-0.49,0.068-0.867
						c-0.01-0.152-0.046-0.301-0.085-0.44c-0.074-0.26-0.176-0.566,0.254-0.476c-0.663-1.364-1.336-2.727-1.969-4.143
						c-0.412-0.921-0.751-1.909-0.9-3.056c-0.038-0.295-0.064-0.604-0.068-0.917c-0.002-0.309,0.042-0.628,0.018-0.967
						c-0.041-0.574-0.296-0.957-0.561-1.343c-0.14,0.073-0.235,0.172-0.39,0.272c-0.076,0.049-0.33,0.248-0.441,0.221
						c-0.089-0.021-0.146-0.282-0.187-0.373c-0.377-0.857-1.032-1.701-1.41-2.479c-0.398,1.043-0.646,2.24-1.052,3.276
						c-0.151,0.048-0.31-0.024-0.459-0.034c-0.25,0.431-0.509,0.713-0.898,0.968c-0.369,0.238-0.822,0.402-1.156,0.696
						c-0.331,0.291-0.512,0.732-0.712,1.137c-0.202,0.408-0.448,0.792-0.713,1.138c-1.063,1.386-2.551,2.447-3.005,4.397
						c0.232-0.008,0.522,0.024,0.543,0.236c0.021,0.203-0.179,0.274-0.289,0.408c-0.017,0.318-0.129,0.505-0.136,0.765
						c-0.021,0.87,0.562,1.627,1.443,1.63c0.172,0,0.454-0.064,0.611,0.051c0.139,0.102,0.177,0.437,0.12,0.594
						c-0.051,0.139-0.147,0.222-0.222,0.271c-0.58,0.396-2.104,0.285-2.784-0.084c-0.176-0.095-0.339-0.29-0.526-0.322
						c-0.293-0.052-0.549,0.113-0.814,0.05c-0.224-0.052-0.453-0.193-0.696-0.306c-0.221-0.101-0.446-0.206-0.68-0.322
						c-0.396-0.193-1.035-0.469-1.171-0.814c-0.096-0.246,0.038-0.684,0.271-0.83c0.077-0.05,0.155-0.039,0.238-0.087
						c0.213-0.121,0.429-0.396,0.577-0.61c0.268-0.388,0.369-0.911,0.985-0.866c0.075-0.116,0.022-0.291,0.05-0.475
						c0.071-0.467,0.584-0.829,0.814-1.223c0.217-0.373,0.366-0.845,0.56-1.291c0.093-0.211,0.201-0.42,0.29-0.627
						c0.094-0.225,0.219-0.438,0.288-0.628c0.027-0.075,0.022-0.163,0.051-0.239c0.071-0.188,0.212-0.3,0.323-0.457
						c0.25-0.36,0.441-0.75,0.696-1.104c0.493-0.684,1.054-1.354,1.731-1.867c0.346-0.261,0.613-0.607,0.833-0.968
						c-0.164-0.006-0.304-0.035-0.425-0.084c-0.007-0.104,0.099-0.201,0.137-0.289c0.142-0.347,0.205-0.801,0.288-1.257
						c0.079-0.428,0.173-0.876,0.237-1.308c0.135-0.892,0.208-1.883,0.544-2.546c0.124-0.246,0.343-0.335,0.305-0.714
						c-0.024-0.246-0.181-0.487-0.272-0.712c-0.28-0.7-0.383-1.577-0.322-2.513c-0.314,0.063-0.637,0.237-1.002,0.271
						c-1.204,0.118-2.065-0.72-2.886-1.019c-0.531,1.221-0.297,3.316-0.169,4.805c-0.058,0.095-0.172,0.135-0.273,0.187
						c-0.295-1.512-0.193-3.456,0.102-4.839c0.021-0.098-0.001-0.248,0.102-0.306c-0.246-0.314-0.515-0.604-0.729-0.95
						c-0.627,0.136-0.802,0.463-1.001,1.069c-0.064,0.194-0.132,0.482-0.289,0.493c-0.126,0.008-0.222-0.151-0.237-0.289
						c-0.042-0.361,0.185-0.973,0.373-1.172c0.254-0.267,0.586-0.336,0.951-0.425c-0.107-0.187-0.262-0.473-0.254-0.831
						c-0.494,0.025-0.721-0.299-0.952-0.595c-0.485-0.618-0.949-1.33-0.882-2.427c0.046-0.771,0.343-1.541,0.526-2.326
						c0.133-0.568,0.359-1.137,0.526-1.681c0.086-0.281,0.171-0.569,0.255-0.849c0.086-0.287,0.208-0.588,0.237-0.849
						c0.024-0.206-0.036-0.401-0.05-0.526c-0.045-0.364,0.016-0.843,0.016-1.358c0-0.867,0.102-1.904,1.002-1.613
						c-0.074-1.796,0.73-2.976,2.003-3.701c1.007-0.574,2.613-0.981,4.041-0.543c0.175,0.054,0.305,0.147,0.476,0.221
						c0.068,0.029,0.152,0.021,0.221,0.051c0.37,0.157,0.574,0.443,0.867,0.746c0.155,0.163,0.305,0.33,0.373,0.51
						c0.27,0.714-0.133,1.463-0.357,2.02c0.188,0.272,0.869,0.483,0.867,0.883c-0.002,0.236-0.223,0.255-0.306,0.442
						c0.599-0.37,1.269-0.758,2.19-0.749c-0.107-0.16-0.24-0.265-0.322-0.424c-0.128-0.246-0.129-0.561-0.169-0.899
						c-0.106-0.874-0.346-2.005-0.051-2.852c0.176-0.506,0.506-0.921,0.865-1.273c0.37-0.361,0.835-0.681,1.393-0.73
						c0.479-0.042,0.891,0.092,1.256,0.221c0.367,0.128,0.679,0.273,0.984,0.475c0.268,0.176,0.645,0.331,0.934,0.527
						c0.249,0.168,0.615,0.47,0.645,0.815C35.712,14.726,35.374,14.872,35.199,15.122 M19.393,31.69
						c-0.227,0.048-0.562,0.118-0.764,0.254c-0.316,0.214-0.489,0.652-0.526,1.069c-0.019,0.22,0.024,0.405,0.136,0.408
						c0.134,0.005,0.218-0.349,0.271-0.509c0.21-0.626,0.397-0.873,1.001-1.053C19.456,31.82,19.468,31.711,19.393,31.69
						 M34.452,37.09c0.091-0.023,0.188-0.04,0.254-0.085c-0.129-0.018-0.161-0.132-0.254-0.187V37.09z"/>
				</g>
			</g>
		</g>
		<g>
			<path fill="#030303" d="M1.506,65.763c0-0.855,0.183-1.563,0.55-2.121s0.838-1.004,1.414-1.335
				c0.576-0.332,1.213-0.563,1.911-0.694c0.698-0.131,1.379-0.196,2.042-0.196h1.597c-0.018-0.314-0.105-0.576-0.262-0.785
				c-0.157-0.21-0.358-0.371-0.603-0.484c-0.245-0.113-0.515-0.192-0.812-0.236c-0.297-0.043-0.602-0.065-0.917-0.065
				c-0.419,0-0.908,0.049-1.466,0.145s-1.135,0.248-1.728,0.458c-0.157-0.297-0.292-0.567-0.406-0.812
				c-0.114-0.244-0.201-0.493-0.262-0.746s-0.104-0.515-0.131-0.786c-0.026-0.271-0.039-0.58-0.039-0.93
				c0.838-0.278,1.671-0.488,2.5-0.628s1.575-0.21,2.239-0.21c0.907,0,1.728,0.109,2.461,0.328c0.733,0.218,1.357,0.554,1.872,1.008
				c0.515,0.454,0.912,1.034,1.191,1.741c0.279,0.707,0.419,1.549,0.419,2.526v7.672c-0.664,0.192-1.466,0.385-2.409,0.576
				c-0.942,0.191-1.938,0.288-2.985,0.288c-0.908,0-1.741-0.083-2.5-0.249c-0.759-0.165-1.41-0.432-1.951-0.799
				c-0.542-0.366-0.965-0.851-1.27-1.453C1.659,67.373,1.506,66.636,1.506,65.763z M7.686,67.229c0.157,0,0.384-0.017,0.681-0.052
				s0.515-0.07,0.655-0.105v-2.88H7.528c-0.611,0-1.126,0.131-1.545,0.393s-0.628,0.629-0.628,1.1c0,0.35,0.079,0.625,0.236,0.825
				c0.157,0.201,0.354,0.354,0.589,0.458c0.235,0.104,0.488,0.175,0.759,0.21C7.21,67.212,7.458,67.229,7.686,67.229z"/>
			<path fill="#030303" d="M20.515,56.336c1.414,0,2.623,0.167,3.626,0.498c1.004,0.332,1.829,0.799,2.475,1.4
				c0.646,0.603,1.117,1.332,1.414,2.187c0.297,0.855,0.445,1.807,0.445,2.854c0,1.1-0.153,2.095-0.458,2.984
				c-0.306,0.891-0.786,1.649-1.44,2.278c-0.654,0.628-1.501,1.112-2.54,1.453c-1.039,0.34-2.291,0.511-3.757,0.511
				c-0.855,0-1.62-0.031-2.291-0.092c-0.672-0.062-1.375-0.145-2.108-0.249V56.703c0.733-0.087,1.51-0.17,2.33-0.249
				C19.031,56.376,19.799,56.336,20.515,56.336z M20.306,66.758c0.07,0,0.162,0.009,0.275,0.025
				c0.114,0.018,0.284,0.026,0.511,0.026c0.978,0,1.706-0.274,2.187-0.824c0.48-0.55,0.72-1.453,0.72-2.71
				c0-1.117-0.235-1.934-0.707-2.448c-0.472-0.515-1.144-0.772-2.017-0.772c-0.209,0-0.401,0.009-0.576,0.026
				c-0.175,0.018-0.306,0.035-0.393,0.052V66.758z"/>
			<path fill="#030303" d="M38.478,56.65c0.139-0.034,0.427-0.069,0.864-0.104c0.436-0.035,0.881-0.053,1.335-0.053
				c0.576,0,1.113,0.018,1.61,0.053s0.842,0.07,1.034,0.104l-5.132,13.484c-0.367,0.088-0.738,0.145-1.113,0.171
				c-0.376,0.025-0.738,0.039-1.087,0.039s-0.707-0.014-1.073-0.039c-0.367-0.026-0.699-0.083-0.995-0.171L28.894,56.65
				c0.192-0.034,0.537-0.069,1.034-0.104s1.034-0.053,1.61-0.053c0.454,0,0.908,0.018,1.362,0.053c0.454,0.035,0.75,0.07,0.89,0.104
				l2.383,8.117c0.401-1.344,0.79-2.706,1.165-4.085C37.713,59.304,38.093,57.96,38.478,56.65z"/>
			<path fill="#030303" d="M48.348,64.82c0.192,0.716,0.528,1.222,1.008,1.519c0.48,0.297,1.113,0.444,1.898,0.444
				c0.506,0,1.073-0.061,1.702-0.183s1.248-0.306,1.859-0.55c0.244,0.454,0.458,0.995,0.641,1.623
				c0.184,0.629,0.284,1.283,0.301,1.964c-1.554,0.576-3.142,0.864-4.766,0.864c-1.257,0-2.334-0.175-3.233-0.523
				c-0.899-0.35-1.632-0.834-2.2-1.454c-0.567-0.619-0.986-1.356-1.256-2.212c-0.271-0.855-0.406-1.789-0.406-2.802
				c0-0.995,0.14-1.929,0.419-2.802s0.698-1.632,1.257-2.278c0.559-0.646,1.257-1.156,2.095-1.531s1.815-0.563,2.933-0.563
				c0.925,0,1.75,0.157,2.475,0.472c0.724,0.314,1.339,0.746,1.846,1.296s0.895,1.214,1.165,1.99
				c0.271,0.777,0.406,1.619,0.406,2.526c0,0.472-0.022,0.896-0.065,1.271s-0.083,0.685-0.118,0.93H48.348z M50.442,59.662
				c-0.559,0-1.039,0.174-1.44,0.523c-0.402,0.35-0.637,0.89-0.707,1.623h4.189c-0.035-0.61-0.223-1.121-0.563-1.531
				S51.088,59.662,50.442,59.662z"/>
			<path fill="#030303" d="M64.137,56.389c0.768,0,1.536,0.065,2.304,0.196c0.769,0.131,1.462,0.406,2.082,0.825
				c0.619,0.419,1.126,1.021,1.519,1.807c0.393,0.785,0.589,1.824,0.589,3.115v7.829c-0.454,0.087-0.863,0.145-1.23,0.17
				c-0.366,0.026-0.689,0.04-0.969,0.04c-0.297,0-0.628-0.014-0.995-0.04c-0.366-0.025-0.776-0.083-1.23-0.17v-7.357
				c0-0.925-0.175-1.588-0.523-1.99c-0.35-0.401-0.882-0.602-1.597-0.602c-0.192,0-0.397,0.018-0.615,0.052
				c-0.219,0.035-0.354,0.07-0.406,0.104v9.793c-0.454,0.087-0.864,0.145-1.23,0.17c-0.367,0.026-0.69,0.04-0.969,0.04
				c-0.297,0-0.628-0.014-0.995-0.04c-0.366-0.025-0.777-0.083-1.23-0.17V57.305c0.611-0.209,1.353-0.414,2.226-0.615
				C61.736,56.489,62.828,56.389,64.137,56.389z"/>
			<path fill="#030303" d="M76.207,60.343h-3.875c-0.088-0.35-0.145-0.677-0.171-0.982c-0.025-0.305-0.039-0.598-0.039-0.877
				s0.014-0.567,0.039-0.864c0.026-0.296,0.083-0.619,0.171-0.969h12.175c0.087,0.35,0.145,0.673,0.171,0.969
				c0.025,0.297,0.039,0.585,0.039,0.864s-0.014,0.572-0.039,0.877c-0.026,0.306-0.084,0.633-0.171,0.982h-3.875v9.818
				c-0.454,0.069-0.864,0.122-1.23,0.157s-0.698,0.053-0.995,0.053s-0.628-0.018-0.995-0.053c-0.366-0.035-0.769-0.088-1.204-0.157
				V60.343z"/>
			<path fill="#030303" d="M98.437,69.56c-0.297,0.104-0.65,0.209-1.061,0.313c-0.41,0.105-0.847,0.206-1.309,0.302
				c-0.463,0.096-0.938,0.17-1.427,0.222c-0.489,0.053-0.969,0.079-1.44,0.079c-0.891,0-1.746-0.07-2.566-0.21
				c-0.82-0.139-1.54-0.423-2.16-0.851c-0.619-0.428-1.112-1.047-1.479-1.859c-0.366-0.812-0.55-1.897-0.55-3.26V56.65
				c0.384-0.087,0.764-0.147,1.14-0.183c0.375-0.035,0.737-0.053,1.086-0.053c0.332,0,0.689,0.018,1.074,0.053
				c0.384,0.035,0.759,0.096,1.126,0.183v7.279c0,1.047,0.174,1.764,0.523,2.147c0.349,0.384,0.881,0.575,1.597,0.575
				c0.297,0,0.524-0.008,0.682-0.025c0.156-0.018,0.27-0.035,0.34-0.053V56.65c0.384-0.087,0.764-0.147,1.139-0.183
				c0.376-0.035,0.737-0.053,1.087-0.053c0.331,0,0.689,0.018,1.073,0.053s0.76,0.096,1.126,0.183V69.56z"/>
			<path fill="#030303" d="M101.368,56.703c0.82-0.104,1.672-0.192,2.554-0.262c0.881-0.07,1.715-0.105,2.5-0.105
				c2.112,0,3.696,0.397,4.753,1.191c1.056,0.795,1.584,1.907,1.584,3.339c0,0.541-0.062,1.013-0.184,1.414
				s-0.271,0.746-0.445,1.034s-0.357,0.52-0.55,0.693c-0.192,0.175-0.35,0.314-0.471,0.419l2.984,5.708
				c-0.35,0.07-0.737,0.122-1.165,0.157s-0.843,0.053-1.244,0.053c-0.488,0-0.96-0.018-1.413-0.053
				c-0.454-0.035-0.83-0.087-1.126-0.157l-2.906-6.179l0.366-0.21c0.61-0.349,1.029-0.72,1.257-1.112
				c0.227-0.393,0.34-0.816,0.34-1.271c0-0.453-0.135-0.824-0.405-1.112c-0.271-0.288-0.703-0.433-1.296-0.433
				c-0.332,0-0.585,0.018-0.76,0.053v10.29c-0.454,0.087-0.864,0.145-1.23,0.17c-0.366,0.026-0.689,0.04-0.969,0.04
				c-0.297,0-0.62-0.014-0.969-0.04c-0.35-0.025-0.751-0.083-1.205-0.17V56.703z"/>
			<path fill="#030303" d="M119.016,64.82c0.192,0.716,0.528,1.222,1.008,1.519c0.48,0.297,1.113,0.444,1.898,0.444
				c0.507,0,1.074-0.061,1.702-0.183c0.629-0.122,1.248-0.306,1.859-0.55c0.244,0.454,0.458,0.995,0.642,1.623
				c0.183,0.629,0.283,1.283,0.301,1.964c-1.554,0.576-3.142,0.864-4.766,0.864c-1.257,0-2.335-0.175-3.233-0.523
				c-0.899-0.35-1.633-0.834-2.199-1.454c-0.567-0.619-0.986-1.356-1.257-2.212c-0.271-0.855-0.406-1.789-0.406-2.802
				c0-0.995,0.14-1.929,0.419-2.802s0.698-1.632,1.257-2.278c0.559-0.646,1.257-1.156,2.095-1.531s1.815-0.563,2.933-0.563
				c0.925,0,1.75,0.157,2.475,0.472c0.724,0.314,1.339,0.746,1.846,1.296c0.506,0.55,0.895,1.214,1.165,1.99
				c0.271,0.777,0.406,1.619,0.406,2.526c0,0.472-0.022,0.896-0.065,1.271c-0.044,0.375-0.083,0.685-0.118,0.93H119.016z
				 M121.11,59.662c-0.559,0-1.039,0.174-1.439,0.523c-0.402,0.35-0.638,0.89-0.707,1.623h4.189
				c-0.036-0.61-0.223-1.121-0.563-1.531S121.756,59.662,121.11,59.662z"/>
		</g>
	</g>
	<g>
		<text transform="matrix(1 0 0 1 2.9575 95.3691)" fill="#010101" font-family="'FuturaBT-Light'" font-size="7.9477">TREK &amp; EXPEDITION PVT. LTD.</text>
	</g>
</g>
</svg>
