<?xml version="1.0" encoding="utf-8"?>
<!-- Generator: Adobe Illustrator 14.0.0, SVG Export Plug-In . SVG Version: 6.00 Build 43363)  -->
<!DOCTYPE svg PUBLIC "-//W3C//DTD SVG 1.1//EN" "http://www.w3.org/Graphics/SVG/1.1/DTD/svg11.dtd">
<svg version="1.1" id="Capa_1" xmlns="http://www.w3.org/2000/svg" xmlns:xlink="http://www.w3.org/1999/xlink" x="0px" y="0px"
	 width="512px" height="512px" viewBox="0 0 512 512" enable-background="new 0 0 512 512" xml:space="preserve">
<g>
	<path fill="#0077BC" d="M504.526,494.242H492.69c-3.6-94.039-74.808-171.039-166.296-183.67V288
		c6.389-2.867,10.856-9.276,10.856-16.721v-10c0-9.447-7.185-17.245-16.378-18.223v-35.331c0-1.13-0.256-2.244-0.749-3.261
		L288.16,138.55c-1.25-2.576-3.861-4.213-6.725-4.213h-0.551v-11.051h2.072c2.887,0,5.592-0.774,7.938-2.111l35.996,63.636
		c40.688,71.93,100.703,130.571,173.554,169.585c1.123,0.603,2.332,0.887,3.521,0.887c2.668,0,5.249-1.432,6.595-3.946
		c1.949-3.639,0.579-8.169-3.059-10.117c-70.354-37.676-128.31-94.304-167.6-163.767l-40.855-72.225v-7.535l25.924,32.396
		c45.6,56.988,106.784,97.742,176.942,117.857c0.688,0.197,1.383,0.291,2.064,0.291c3.249,0,6.239-2.137,7.181-5.416
		c1.138-3.967-1.157-8.106-5.125-9.244c-67.164-19.256-125.74-58.271-169.393-112.828l-44.379-55.464
		c-1.055-5.594-5.012-10.162-10.244-12.098L265.52,9.213c-1.396-3.834-5.06-6.403-9.147-6.403c-4.086,0-7.749,2.569-9.146,6.403
		L230.73,53.187c-5.233,1.936-9.19,6.503-10.244,12.099l-44.38,55.463c-43.654,54.556-102.228,93.57-169.392,112.827
		c-3.968,1.138-6.262,5.276-5.125,9.244c0.94,3.28,3.93,5.416,7.181,5.416c0.682,0,1.375-0.094,2.063-0.291
		c70.158-20.115,131.344-60.869,176.943-117.857l25.923-32.397v7.536l-40.854,72.224C133.554,246.914,75.598,303.543,5.247,341.218
		c-3.639,1.949-5.008,6.479-3.06,10.117c1.347,2.516,3.927,3.946,6.595,3.946c1.191,0,2.399-0.285,3.521-0.887
		c72.851-39.013,132.866-97.654,173.554-169.585l35.997-63.636c2.346,1.337,5.05,2.111,7.938,2.111h2.072v11.083
		c-2.685,0.162-5.094,1.74-6.278,4.182l-10.029,20.68c-1.801,3.714-0.25,8.184,3.464,9.986c3.713,1.802,8.184,0.25,9.986-3.464
		l7.986-16.467h39.762l29.174,60.157v33.507h-16.59c-4.128,0-7.473,3.346-7.473,7.474c0,4.128,3.345,7.474,7.473,7.474h29.584
		c1.865,0,3.384,1.518,3.384,3.383v10.002c0,1.865-1.517,3.383-3.384,3.383H193.827c-1.866,0-3.382-1.518-3.382-3.383v-10.002
		c0-1.865,1.517-3.383,3.382-3.383h63.659c4.129,0,7.474-3.346,7.474-7.474c0-4.127-3.345-7.474-7.474-7.474h-49.668v-33.507
		l7.286-15.025c1.801-3.714,0.25-8.185-3.464-9.986c-3.714-1.801-8.184-0.25-9.986,3.463l-8.035,16.569
		c-0.493,1.017-0.749,2.132-0.749,3.261v35.272c-9.661,0.502-17.373,8.497-17.373,18.281v10.002c0,7.443,4.468,13.854,10.857,16.721
		v22.59c-35.53,4.944-69.253,19.729-96.995,42.864c-3.17,2.644-3.596,7.356-0.954,10.526c2.644,3.17,7.355,3.597,10.526,0.953
		c31.892-26.597,72.357-41.244,113.941-41.244h87.004c82.65,0,152.323,56.618,172.281,133.104H40.624
		c6.715-25.731,19.143-49.835,36.585-70.343c2.675-3.144,2.293-7.86-0.851-10.535c-3.142-2.675-7.861-2.293-10.535,0.852
		c-28,32.921-44.097,74.382-45.771,117.475H7.474c-4.127,0-7.474,3.347-7.474,7.474c0,4.128,3.346,7.474,7.474,7.474h497.053
		c4.128,0,7.474-3.346,7.474-7.474C512,497.589,508.653,494.242,504.526,494.242L504.526,494.242z M235.146,78.617V68.268
		c0-0.63,0.512-1.143,1.142-1.143h40.147c0.009,0,0.017,0.002,0.026,0.002h0.007c0.626,0.005,1.134,0.514,1.134,1.141v10.349
		c0,0.63-0.514,1.142-1.143,1.142h-40.171C235.658,79.759,235.146,79.247,235.146,78.617L235.146,78.617z M256.373,27.388
		l9.299,24.79h-18.599L256.373,27.388z M228.647,107.195V95.849c0-0.63,0.513-1.143,1.143-1.143h53.167
		c0.629,0,1.142,0.513,1.142,1.143v11.345c0,0.63-0.513,1.143-1.142,1.143h-53.167C229.161,108.338,228.647,107.825,228.647,107.195
		z M265.938,123.286v11.05H246.81v-11.05H265.938z M212.872,308.742c-3.869,0-7.726,0.126-11.571,0.357v-19.49h110.146v19.489
		c-3.83-0.228-7.687-0.356-11.572-0.356H212.872z M37.401,471.741h437.964c1.253,7.358,2.053,14.868,2.369,22.501H35.007
		C35.326,486.671,36.133,479.157,37.401,471.741L37.401,471.741z"/>
</g>
</svg>
