<?xml version="1.0" encoding="utf-8"?>
<!-- Generator: Adobe Illustrator 14.0.0, SVG Export Plug-In . SVG Version: 6.00 Build 43363)  -->
<!DOCTYPE svg PUBLIC "-//W3C//DTD SVG 1.1//EN" "http://www.w3.org/Graphics/SVG/1.1/DTD/svg11.dtd">
<svg version="1.1" id="Capa_1" xmlns="http://www.w3.org/2000/svg" xmlns:xlink="http://www.w3.org/1999/xlink" x="0px" y="0px"
	 width="512px" height="512px" viewBox="0 0 512 512" enable-background="new 0 0 512 512" xml:space="preserve">
<g>
	<g>
		<path fill="#0077BC" d="M153.549,110.087c0-26.141-21.267-47.408-47.408-47.408c-26.141,0-47.409,21.268-47.409,47.408
			c0,26.141,21.268,47.408,47.408,47.408C132.281,157.495,153.549,136.228,153.549,110.087z M106.14,127.529
			c-9.618,0-17.442-7.824-17.442-17.442c0-9.618,7.824-17.441,17.442-17.441c9.618,0,17.442,7.824,17.442,17.441
			C123.582,119.705,115.758,127.529,106.14,127.529z"/>
		<path fill="#0077BC" d="M511.988,250.296c-0.237-5.903-3.922-11.117-9.407-13.311l-159.268-63.708
			c-4.617-1.846-9.848-1.283-13.965,1.504c-4.118,2.787-6.584,7.435-6.584,12.407v219.756
			c-18.312,5.412-32.511,20.477-36.685,39.282H74.146c-15.976,0-28.973-12.998-28.973-28.973c0-15.976,12.998-28.974,28.973-28.974
			h135.58c30.826,0,55.905-25.079,55.905-55.906c0-30.826-25.079-55.905-55.905-55.905h-77.164l64.464-107.776
			c10.926-18.266,16.701-39.171,16.701-60.455c0-58.924-47.938-106.863-106.863-106.863C47.94,1.375,0,49.313,0,108.237v0.382
			c0,20.997,5.632,41.661,16.286,59.755l76.944,130.678c2.4,3.858,6.824,7.418,12.86,7.381h103.637
			c14.303,0,25.939,11.637,25.939,25.939c0,14.304-11.636,25.94-25.939,25.94H74.146c-32.5,0-58.94,26.44-58.94,58.94
			c0,32.499,26.441,58.939,58.94,58.939h214.009c7.517,20.091,26.904,34.436,49.586,34.436c29.184,0,52.927-23.743,52.927-52.927
			c0-23.978-16.03-44.27-37.935-50.751v-67.707l150.945-74.924C508.97,261.691,512.226,256.2,511.988,250.296L511.988,250.296z
			 M42.108,153.169c-7.943-13.491-12.142-28.896-12.142-44.551v-0.382c0-42.4,34.496-76.896,76.896-76.896
			c42.401,0,76.896,34.497,76.896,76.896c0,15.868-4.306,31.453-12.451,45.072l-65.066,108.783L42.108,153.169z M360.699,457.701
			c0,12.66-10.301,22.959-22.959,22.959s-22.959-10.3-22.959-22.959c0-12.646,10.275-22.935,22.914-22.958
			c0.019,0,0.037,0.003,0.055,0.003c0.016,0,0.031-0.002,0.048-0.002C350.431,434.773,360.699,445.059,360.699,457.701
			L360.699,457.701z M352.732,305.787V209.32l107.618,43.048L352.732,305.787z"/>
	</g>
</g>
</svg>
