<?xml version="1.0" encoding="utf-8"?>
<!-- Generator: Adobe Illustrator 14.0.0, SVG Export Plug-In . SVG Version: 6.00 Build 43363)  -->
<!DOCTYPE svg PUBLIC "-//W3C//DTD SVG 1.1//EN" "http://www.w3.org/Graphics/SVG/1.1/DTD/svg11.dtd">
<svg version="1.1" id="Layer_1" xmlns="http://www.w3.org/2000/svg" xmlns:xlink="http://www.w3.org/1999/xlink" x="0px" y="0px"
	 width="512px" height="512px" viewBox="0 0 512 512" enable-background="new 0 0 512 512" xml:space="preserve">
<g>
	<g>
		<path fill="#0077BC" d="M482.831,390.267c-6.384-6.384-14.87-9.887-23.891-9.887c-0.011,0-0.011,0-0.011,0h-0.789
			c-8.611,0-16.261,4.242-20.941,10.763l-50.285-50.294l-10.237-76.766c-4.516-33.827-33.653-59.344-67.812-59.344
			c-9.382,0-17.012,7.634-17.012,17.017v17.561c0,19.673-15.999,35.677-35.677,35.677c-19.672,0-35.676-16.004-35.676-35.677
			v-17.561c0-9.382-7.636-17.017-17.037-17.017c-34.133,0-63.276,25.517-67.787,59.344l-10.237,76.766l-50.276,50.274
			c-0.812-1.129-1.722-2.199-2.725-3.191c-4.87-4.876-11.347-7.552-18.243-7.552c-0.004,0-0.004,0-0.004,0
			c-19.065,0-34.572,15.512-34.572,34.567c0,18.724,14.958,34.002,33.55,34.547c-4.53,6.375-7.206,14.151-7.206,22.54
			C45.969,493.521,63.447,511,84.936,511h342.482c21.488,0,38.967-17.479,38.967-38.966c0-8.389-2.667-16.165-7.202-22.53
			c18.588-0.545,33.556-15.892,33.556-34.684v-0.662C492.738,405.138,489.216,396.651,482.831,390.267z M327.325,359.232
			l2.842-24.126l2.619,13.128c2.374,11.824,8.136,22.598,16.66,31.133l53.7,53.7h-61.505l-12.885-51.54
			C326.927,374.209,326.44,366.716,327.325,359.232z M203.488,221.205c0.303,0,0.545,0.249,0.545,0.55v17.561
			c0,28.758,23.396,52.144,52.144,52.144s52.144-23.386,52.144-52.144v-17.561c0-0.302,0.242-0.55,0.564-0.55
			c6.199,0,12.175,1.119,17.73,3.153l-15.648,132.957c-1.109,9.458-0.506,18.957,1.811,28.202l11.892,47.55h-136.98l11.888-47.55
			c2.311-9.245,2.92-18.744,1.806-28.202l-15.645-132.953C191.303,222.324,197.285,221.205,203.488,221.205z M182.19,335.106
			l2.837,24.126c0.881,7.483,0.398,14.977-1.425,22.295l-12.886,51.54h-61.514l53.7-53.7c8.529-8.535,14.292-19.298,16.66-31.133
			L182.19,335.106z M54.202,433.067c-9.99,0-18.116-8.136-18.116-18.12c0-9.985,8.125-18.102,18.116-18.102
			c2.491,0,4.832,0.964,6.593,2.725c1.767,1.762,2.735,4.107,2.735,6.598c0,3.329,2.005,6.326,5.084,7.61
			c3.075,1.266,6.619,0.564,8.967-1.79l61.473-61.466c1.278-1.285,2.101-2.939,2.339-4.73l10.604-79.528
			c1.77-13.259,8.529-24.831,18.217-32.927l5.751,48.907l-12.55,62.761c-1.727,8.633-5.931,16.496-12.16,22.715l-65.338,65.349
			h-0.983H54.202L54.202,433.067z M221.599,494.534H84.936c-12.409,0-22.505-10.092-22.505-22.5c0-12.419,10.096-22.5,22.505-22.5
			h57.626v4.019c0,12.184,8.307,22.54,20.203,25.177l58.834,13.079V494.534L221.599,494.534z M221.599,474.934l-55.262-12.281
			c-4.302-0.954-7.31-4.691-7.31-9.1v-4.019h62.571V474.934z M427.418,494.534H238.066v-45h189.352c12.409,0,22.5,10.091,22.5,22.5
			C449.918,484.442,439.827,494.534,427.418,494.534z M476.271,414.82c0,10.053-8.125,18.247-18.101,18.247h-31.736l-65.34-65.349
			c-6.227-6.219-10.433-14.082-12.154-22.715l-12.554-62.761l5.752-48.907c9.683,8.097,16.445,19.668,18.217,32.927l10.599,79.528
			c0.242,1.791,1.07,3.445,2.345,4.73l61.477,61.466c2.355,2.354,5.889,3.056,8.973,1.79c3.075-1.274,5.08-4.281,5.08-7.61
			c0-5.138,4.185-9.322,9.323-9.322h0.778c0.011,0,0.011,0,0.02,0c4.622,0,8.973,1.791,12.243,5.061
			c3.27,3.27,5.079,7.629,5.079,12.262V414.82L476.271,414.82z"/>
	</g>
</g>
<g>
	<g>
		<path fill="#0077BC" d="M289.79,45.468c0.643-2.642,0.963-5.362,0.963-8.126c0-19.064-15.511-34.577-34.576-34.577
			c-19.065,0-34.578,15.513-34.578,34.577c0,2.769,0.331,5.484,0.968,8.126c-26.51,12.612-44.879,39.652-44.879,70.911v8.063
			c0,4.53,3.656,8.208,8.186,8.233c0.534,0,3.921,0,9.38-0.351v10.399c0,33.594,27.328,60.921,60.922,60.921
			c33.594,0,60.921-27.327,60.921-60.921v-10.248c2.979,0.583,6.093,0.92,9.334,0.92c4.544,0,8.231-3.689,8.231-8.234v-8.783
			C334.663,85.125,316.3,58.084,289.79,45.468z M256.177,19.23c9.984,0,18.111,8.126,18.111,18.111c0,0.891-0.088,1.766-0.205,2.633
			c-5.761-1.348-11.747-2.083-17.906-2.083c-6.161,0-12.146,0.734-17.902,2.083c-0.126-0.867-0.208-1.742-0.208-2.633
			C238.066,27.356,246.191,19.23,256.177,19.23z M300.632,142.723c0,24.514-19.941,44.455-44.455,44.455
			s-44.455-19.941-44.455-44.455v-12.077c18.496-2.545,44.309-8.277,68.677-21.211c4.224,4.875,11.144,11.717,20.233,16.841V142.723
			L300.632,142.723z M289.362,94.229c-2.433-3.625-7.271-4.724-11.036-2.505c-31.405,18.568-68.132,23.055-84.17,24.14
			c0.282-33.959,27.993-61.505,62.021-61.505c34.022,0,61.729,27.531,62.011,61.48C301.09,111.342,289.498,94.424,289.362,94.229z"
			/>
	</g>
</g>
</svg>
